<?xml version="1.0" encoding="utf-8"?>
<!-- Generator: Adobe Illustrator 22.0.1, SVG Export Plug-In . SVG Version: 6.00 Build 0)  -->
<svg version="1.1" id="Layer_1" xmlns="http://www.w3.org/2000/svg" xmlns:xlink="http://www.w3.org/1999/xlink" x="0px" y="0px"
	 viewBox="0 0 364.9 79.3" style="enable-background:new 0 0 364.9 79.3;" xml:space="preserve">
<style type="text/css">
	.st0{display:none;}
	.st1{display:inline;enable-background:new    ;}
	.st2{fill:#464646;}
	.st3{enable-background:new    ;}
	.st4{fill:#434549;}
	.st5{fill:url(#SVGID_1_);}
	.st6{fill:url(#SVGID_2_);}
	.st7{fill:url(#SVGID_3_);}
	.st8{fill:url(#SVGID_4_);}
	.st9{fill:url(#SVGID_5_);}
	.st10{fill:url(#SVGID_6_);}
	.st11{fill:url(#SVGID_7_);}
	.st12{fill:url(#SVGID_8_);}
	.st13{fill:url(#SVGID_9_);}
</style>
<title>dark gold horizontal</title>
<g id="globe_gold">
	<g id="dark">
		<g class="st0">
			<g class="st1">
				<path class="st2" d="M133.8,65.2V66h-6.9V53.4h1v11.9h6L133.8,65.2L133.8,65.2z"/>
			</g>
			<g class="st1">
				<path class="st2" d="M141.8,57.1v9h-0.5c-0.1,0-0.2-0.1-0.2-0.2l-0.1-1.3c-0.4,0.5-0.8,1-1.4,1.2c-0.6,0.4-1.2,0.5-1.8,0.5
					c-0.5,0-1-0.1-1.3-0.2s-0.7-0.4-1-0.7c-0.2-0.4-0.5-0.6-0.6-1.1s-0.2-0.8-0.2-1.4V57h0.8v5.7c0,0.8,0.2,1.4,0.6,1.9
					c0.4,0.5,1,0.7,1.8,0.7c0.6,0,1.1-0.1,1.7-0.5c0.5-0.2,1-0.7,1.3-1.2V57h1v0.1H141.8z"/>
				<path class="st2" d="M151.4,66.1h-0.8c-0.1,0-0.1,0-0.2-0.1l-0.1-0.1l-2.7-3.9c0,0.1-0.1,0.2-0.1,0.4l-2.6,3.6l-0.1,0.1
					l-0.1,0.1H144l3.2-4.5l-3.1-4.3h0.8c0.1,0,0.1,0,0.2,0l0.1,0.1l2.6,3.8V61c0,0,0-0.1,0.1-0.1l2.4-3.5l0.1-0.1h0.1h0.8l-3.1,4.3
					L151.4,66.1z"/>
				<path class="st2" d="M160.1,57.1v9h-0.5c-0.1,0-0.2-0.1-0.2-0.2l-0.1-1.3c-0.4,0.5-0.8,1-1.4,1.2c-0.6,0.4-1.2,0.5-1.8,0.5
					c-0.5,0-1-0.1-1.3-0.2c-0.4-0.1-0.7-0.4-1-0.7c-0.2-0.4-0.5-0.6-0.6-1.1s-0.2-0.8-0.2-1.4V57h0.8v5.7c0,0.8,0.2,1.4,0.6,1.9
					s1,0.7,1.8,0.7c0.6,0,1.1-0.1,1.7-0.5c0.5-0.2,1-0.7,1.3-1.2V57h1v0.1H160.1z"/>
			</g>
			<g class="st1">
				<path class="st2" d="M163.8,59.2c0.1-0.4,0.2-0.7,0.5-1c0.1-0.2,0.4-0.5,0.6-0.7c0.2-0.2,0.5-0.4,0.7-0.5s0.6-0.1,1-0.1
					c0.2,0,0.4,0,0.6,0s0.4,0.1,0.5,0.1l-0.1,0.6c0,0.1-0.1,0.1-0.1,0.1c-0.1,0-0.2,0-0.4-0.1c-0.1-0.1-0.4-0.1-0.6-0.1
					c-0.4,0-0.6,0-1,0.1c-0.2,0.1-0.5,0.2-0.7,0.5c-0.2,0.2-0.4,0.5-0.6,0.7c-0.1,0.4-0.4,0.7-0.5,1.1v5.7h-0.8v-9h0.5
					c0.1,0,0.1,0,0.2,0.1c0.1,0.1,0.1,0.1,0.1,0.2L163.8,59.2z"/>
			</g>
			<g class="st1">
				<path class="st2" d="M176.6,57.1l-5.1,11.8c0,0.1-0.1,0.1-0.1,0.2c0,0-0.1,0.1-0.2,0.1h-0.6l1.6-3.5l-3.8-8.6h0.7
					c0.1,0,0.1,0,0.2,0.1s0.1,0.1,0.1,0.1l3,6.9c0,0.1,0.1,0.2,0.1,0.2c0,0.1,0,0.2,0.1,0.2c0-0.1,0.1-0.2,0.1-0.2
					c0-0.1,0.1-0.2,0.1-0.2l3-6.9c0-0.1,0.1-0.1,0.1-0.1h0.1L176.6,57.1L176.6,57.1L176.6,57.1z"/>
			</g>
			<g class="st1">
				<path class="st2" d="M183.7,53v13h-1V53H183.7z"/>
				<path class="st2" d="M188,54.1c0,0.1,0,0.2-0.1,0.4c0,0.1-0.1,0.1-0.1,0.2c-0.1,0.1-0.1,0.1-0.2,0.1c-0.1,0-0.2,0.1-0.4,0.1
					c-0.1,0-0.2,0-0.4-0.1c-0.1,0-0.2-0.1-0.2-0.1c-0.1-0.1-0.1-0.1-0.1-0.2c0-0.1-0.1-0.2-0.1-0.4s0-0.2,0.1-0.4
					c0-0.1,0.1-0.2,0.1-0.2c0.1-0.1,0.1-0.1,0.2-0.1c0.1,0,0.2-0.1,0.4-0.1c0.1,0,0.2,0,0.4,0.1c0.1,0,0.1,0.1,0.2,0.1
					c0.1,0.1,0.1,0.1,0.1,0.2C188,53.9,188,54,188,54.1z M187.7,57.1v9h-0.8v-9H187.7z"/>
			</g>
			<g class="st1">
				<path class="st2" d="M191.2,66.1v-8L190,58c-0.1,0-0.2-0.1-0.2-0.2v-0.4h1.6v-1.1c0-0.5,0.1-1,0.2-1.3c0.1-0.4,0.4-0.7,0.6-1
					c0.2-0.2,0.5-0.5,0.8-0.6s0.7-0.2,1.1-0.2c0.2,0,0.4,0,0.6,0s0.4,0.1,0.5,0.1v0.4c0,0,0,0.1-0.1,0.1H195c-0.1,0-0.1,0-0.2,0
					c-0.1,0-0.2,0-0.4,0s-0.6,0-0.8,0.1s-0.5,0.2-0.6,0.4s-0.4,0.5-0.4,0.7c-0.1,0.4-0.1,0.7-0.1,1.1v1.1h2.9v0.6h-2.9v8h-1.2v0.3
					H191.2z"/>
			</g>
			<g class="st1">
				<path class="st2" d="M196.7,61.3L196.7,61.3c0,0.8,0.1,1.4,0.2,1.9c0.1,0.5,0.4,1,0.7,1.3c0.2,0.4,0.6,0.6,1.1,0.7
					c0.4,0.1,0.8,0.2,1.3,0.2s0.8,0,1.2-0.1s0.6-0.2,0.8-0.4c0.2-0.1,0.4-0.2,0.5-0.4c0.1-0.1,0.2-0.1,0.2-0.1c0.1,0,0.1,0,0.1,0.1
					l0.2,0.2c-0.1,0.2-0.4,0.4-0.6,0.5s-0.5,0.2-0.8,0.4c-0.2,0.1-0.6,0.2-1,0.2c-0.4,0.1-0.7,0.1-1,0.1c-0.6,0-1.2-0.1-1.7-0.4
					c-0.5-0.2-1-0.5-1.3-1c-0.4-0.4-0.6-1-0.8-1.4c-0.2-0.6-0.2-1.3-0.2-2c0-0.6,0.1-1.2,0.2-1.8c0.2-0.6,0.5-1,0.8-1.4
					c0.4-0.4,0.7-0.7,1.3-1c0.5-0.2,1.1-0.4,1.7-0.4c0.5,0,1,0.1,1.4,0.2s0.8,0.5,1.1,0.7c0.2,0.2,0.6,0.7,0.7,1.2
					c0.2,0.5,0.2,1.1,0.2,1.7c0,0.1,0,0.2,0,0.2l-0.1,0.1h-6.4v0.7H196.7z M202.7,60.7c0-0.5-0.1-1-0.2-1.3c-0.1-0.4-0.4-0.7-0.6-1
					c-0.2-0.2-0.5-0.5-0.8-0.6s-0.7-0.2-1.1-0.2c-0.5,0-0.8,0.1-1.2,0.2c-0.4,0.1-0.7,0.4-1,0.6s-0.5,0.6-0.6,1s-0.2,0.8-0.4,1.3
					H202.7z"/>
				<path class="st2" d="M210.3,60.3h4.2V61h-4.2V60.3z"/>
			</g>
			<g class="st1">
				<path class="st2" d="M226.5,59.1c0.7,0,1.3,0.1,1.8,0.2c0.5,0.1,1,0.4,1.3,0.7c0.4,0.2,0.6,0.6,0.8,1.1c0.1,0.4,0.2,0.8,0.2,1.4
					s-0.1,1.1-0.2,1.6c-0.2,0.5-0.5,0.8-0.8,1.1c-0.4,0.4-0.8,0.6-1.3,0.7s-1.1,0.2-1.8,0.2h-3.8V53.4h7.8v0.7h-6.8v5
					C223.7,59.1,226.5,59.1,226.5,59.1z M226.3,65.3c1.1,0,1.9-0.2,2.5-0.7s0.8-1.2,0.8-2s-0.2-1.6-0.8-2c-0.6-0.5-1.3-0.7-2.5-0.7
					h-3v5.5h3V65.3z"/>
			</g>
			<g class="st1">
				<path class="st2" d="M239.7,57.1l-5.1,11.8c0,0.1-0.1,0.1-0.1,0.2s-0.1,0.1-0.2,0.1h-0.6l1.6-3.5l-3.8-8.6h0.7
					c0.1,0,0.1,0,0.2,0.1s0.1,0.1,0.1,0.1l3,6.9c0,0.1,0.1,0.2,0.1,0.2c0,0.1,0,0.2,0.1,0.2c0-0.1,0.1-0.2,0.1-0.2
					c0-0.1,0.1-0.2,0.1-0.2l3-6.9c0-0.1,0.1-0.1,0.1-0.1h0.1L239.7,57.1L239.7,57.1L239.7,57.1z"/>
			</g>
			<g class="st1">
				<path class="st2" d="M249.5,65.3v3.6c0,0.2-0.1,0.2-0.2,0.2h-0.5v-3.2h-8.5v3c0,0.1,0,0.1,0,0.1l-0.1,0.1h-0.5v-3.8h0.4
					c0.2,0,0.5,0,0.6-0.1c0.2-0.1,0.4-0.2,0.6-0.5c0.2-0.2,0.4-0.6,0.6-1c0.1-0.4,0.4-1,0.5-1.6s0.2-1.3,0.4-2.1
					c0.1-0.8,0.2-1.9,0.2-3h5.1v8.2h1.4V65.3z M247.1,65.5v-7.6h-3.6c-0.1,1.2-0.1,2.3-0.4,3.1c-0.1,0.8-0.2,1.6-0.5,2.1
					c-0.2,0.6-0.4,1.1-0.6,1.4c-0.2,0.4-0.5,0.6-0.6,0.8h5.6v0.2H247.1z"/>
				<path class="st2" d="M254.5,60.9c0.6,0,1.1,0.1,1.6,0.2c0.4,0.1,0.7,0.4,1,0.6c0.2,0.2,0.5,0.5,0.5,0.8s0.1,0.6,0.1,1
					s-0.1,0.7-0.2,1.1s-0.4,0.6-0.6,0.8c-0.2,0.2-0.6,0.5-1,0.6s-0.8,0.2-1.3,0.2h-3.1v-9h0.8V61L254.5,60.9L254.5,60.9L254.5,60.9z
					 M254.5,65.5c0.4,0,0.7,0,1.1-0.1c0.4-0.1,0.6-0.2,0.7-0.4c0.1-0.1,0.4-0.4,0.5-0.6s0.1-0.5,0.1-0.8c0-0.2,0-0.5-0.1-0.7
					s-0.2-0.5-0.4-0.6c-0.2-0.1-0.5-0.4-0.7-0.4c-0.4-0.1-0.7-0.1-1.2-0.1h-2.3v3.9h2.3L254.5,65.5L254.5,65.5z"/>
				<path class="st2" d="M267.7,57.1c0.6,0,1,0,1.3,0.1s0.7,0.2,1,0.5c0.2,0.2,0.4,0.4,0.5,0.7c0.1,0.2,0.1,0.5,0.1,0.8
					c0,0.2,0,0.4-0.1,0.6c-0.1,0.2-0.1,0.5-0.4,0.6c-0.2,0.1-0.4,0.4-0.6,0.6c-0.2,0.1-0.6,0.2-1,0.4c0.8,0.1,1.4,0.4,1.8,0.7
					c0.4,0.4,0.6,0.8,0.6,1.4c0,0.4-0.1,0.7-0.2,1.1s-0.4,0.6-0.7,0.8c-0.2,0.2-0.6,0.4-1.1,0.5c-0.4,0.1-0.8,0.1-1.3,0.1h-3.1v-9
					C264.4,57.1,267.7,57.1,267.7,57.1z M265.5,57.7v3.5h2.1c0.4,0,0.6,0,1-0.1c0.2-0.1,0.5-0.2,0.7-0.4c0.2-0.1,0.4-0.4,0.5-0.6
					c0.1-0.2,0.1-0.5,0.1-0.7s0-0.4-0.1-0.6c-0.1-0.2-0.2-0.4-0.4-0.5c-0.1-0.1-0.4-0.2-0.7-0.4c-0.2-0.1-0.6-0.1-1.1-0.1h-2.1V57.7
					z M267.9,65.5c0.4,0,0.7,0,1.1-0.1s0.6-0.2,0.7-0.4c0.2-0.1,0.4-0.4,0.5-0.6s0.1-0.5,0.1-0.8c0-0.2,0-0.5-0.1-0.7
					s-0.2-0.4-0.5-0.6c-0.2-0.1-0.5-0.2-0.7-0.4c-0.4-0.1-0.7-0.1-1.1-0.1h-2.4v3.7H267.9z"/>
				<path class="st2" d="M285.4,57.8h-3.7V66h-0.8v-8.2h-3.7v-0.6h8.4v0.6H285.4z"/>
				<path class="st2" d="M288.1,58.8c0.4-0.6,0.8-1,1.4-1.3c0.6-0.4,1.1-0.5,1.8-0.5c1.1,0,1.9,0.4,2.5,1.2s1,1.9,1,3.5
					c0,0.6-0.1,1.3-0.2,1.8s-0.5,1.1-0.7,1.4c-0.2,0.4-0.7,0.7-1.2,1c-0.5,0.2-1.1,0.4-1.7,0.4s-1.1-0.1-1.6-0.4
					c-0.5-0.2-0.8-0.6-1.2-1v4.3h-0.8V57.1h0.5c0.1,0,0.2,0.1,0.2,0.2L288.1,58.8L288.1,58.8z M288.1,64.1c0.1,0.2,0.4,0.5,0.6,0.6
					s0.4,0.4,0.6,0.5s0.5,0.2,0.7,0.2s0.5,0.1,0.7,0.1c0.5,0,1-0.1,1.4-0.2c0.4-0.2,0.7-0.5,1-0.8c0.2-0.4,0.5-0.7,0.6-1.2
					s0.2-1.1,0.2-1.6c0-1.3-0.2-2.3-0.7-2.9c-0.5-0.6-1.2-1-2.1-1c-0.6,0-1.1,0.1-1.6,0.5s-1,0.7-1.3,1.3V64h-0.1V64.1z"/>
				<path class="st2" d="M297.4,61.3L297.4,61.3c0,0.8,0.1,1.4,0.2,1.9s0.4,1,0.7,1.3c0.2,0.4,0.6,0.6,1.1,0.7
					c0.4,0.1,0.8,0.2,1.3,0.2s0.8,0,1.2-0.1c0.4-0.1,0.6-0.2,0.8-0.4c0.2-0.1,0.4-0.2,0.5-0.4c0.1-0.1,0.2-0.1,0.2-0.1
					c0.1,0,0.1,0,0.2,0.1l0.2,0.2c-0.1,0.2-0.4,0.4-0.6,0.5s-0.5,0.2-0.8,0.4c-0.4,0.1-0.6,0.2-1,0.2c-0.4,0.1-0.7,0.1-1,0.1
					c-0.6,0-1.2-0.1-1.7-0.4c-0.5-0.2-1-0.5-1.3-1c-0.4-0.4-0.6-1-0.8-1.4c-0.2-0.6-0.2-1.3-0.2-2c0-0.6,0.1-1.2,0.2-1.8
					c0.2-0.6,0.5-1,0.8-1.4c0.4-0.4,0.7-0.7,1.3-1c0.5-0.2,1.1-0.4,1.7-0.4c0.5,0,1,0.1,1.4,0.2s0.8,0.5,1.1,0.7
					c0.4,0.4,0.6,0.7,0.7,1.2c0.2,0.5,0.2,1.1,0.2,1.7c0,0.1,0,0.2,0,0.2l-0.1,0.1h-6.6v0.7H297.4z M303.4,60.7c0-0.5-0.1-1-0.2-1.3
					s-0.4-0.7-0.6-1c-0.2-0.2-0.5-0.5-0.8-0.6s-0.7-0.2-1.1-0.2c-0.5,0-0.8,0.1-1.2,0.2c-0.4,0.1-0.7,0.4-1,0.6
					c-0.2,0.2-0.5,0.6-0.6,1s-0.2,0.8-0.4,1.3H303.4z"/>
				<path class="st2" d="M313.5,57.1v9h-0.8v-4.4h-5.3v4.4h-0.8v-9h0.8v3.8h5.3v-3.8H313.5z"/>
			</g>
			<g class="st1">
				<path class="st2" d="M325.2,65.3v3.6c0,0.2-0.1,0.2-0.2,0.2h-0.5v-3.2H316v3c0,0.1,0,0.1,0,0.1l-0.1,0.1h-0.5v-3.8h0.4
					c0.2,0,0.5,0,0.6-0.1c0.2-0.1,0.4-0.2,0.6-0.5c0.2-0.2,0.4-0.6,0.6-1c0.1-0.4,0.4-1,0.5-1.6s0.2-1.3,0.4-2.1
					c0.1-0.8,0.2-1.9,0.2-3h5.1v8.2h1.4V65.3z M322.8,65.5v-7.6h-3.6c-0.1,1.2-0.1,2.3-0.4,3.1c-0.1,0.8-0.2,1.6-0.5,2.1
					c-0.2,0.6-0.4,1.1-0.6,1.4c-0.2,0.4-0.5,0.6-0.6,0.8h5.6v0.2H322.8z"/>
			</g>
			<g class="st1">
				<path class="st2" d="M327.2,61.3L327.2,61.3c0,0.8,0.1,1.4,0.2,1.9s0.4,1,0.7,1.3c0.2,0.4,0.6,0.6,1.1,0.7
					c0.4,0.1,0.8,0.2,1.3,0.2s0.8,0,1.2-0.1c0.4-0.1,0.6-0.2,0.8-0.4c0.2-0.1,0.4-0.2,0.5-0.4c0.1-0.1,0.2-0.1,0.2-0.1
					c0.1,0,0.1,0,0.1,0.1l0.2,0.2c-0.1,0.2-0.4,0.4-0.6,0.5s-0.5,0.2-0.8,0.4c-0.2,0.1-0.6,0.2-1,0.2c-0.4,0.1-0.7,0.1-1,0.1
					c-0.6,0-1.2-0.1-1.7-0.4c-0.5-0.2-1-0.5-1.3-1c-0.4-0.4-0.6-1-0.8-1.4c-0.2-0.6-0.2-1.3-0.2-2c0-0.6,0.1-1.2,0.2-1.8
					s0.5-1,0.8-1.4c0.4-0.5,0.7-0.7,1.3-1c0.5-0.2,1.1-0.4,1.7-0.4c0.5,0,1,0.1,1.4,0.2c0.5,0.1,0.8,0.5,1.1,0.7
					c0.4,0.4,0.6,0.7,0.7,1.2c0.2,0.5,0.2,1.1,0.2,1.7c0,0.1,0,0.2,0,0.2s-0.1,0.1-0.2,0.1H327v0.7H327.2z M333.2,60.7
					c0-0.5-0.1-1-0.2-1.3c-0.1-0.4-0.4-0.7-0.6-1s-0.5-0.5-0.8-0.6c-0.4-0.1-0.7-0.2-1.1-0.2c-0.5,0-0.8,0.1-1.2,0.2
					c-0.4,0.1-0.7,0.4-1,0.6s-0.5,0.6-0.6,1s-0.2,0.8-0.4,1.3H333.2z"/>
			</g>
		</g>
		<g>
			<path class="st2" d="M110.1,66.2v1h-8.7V51.3h1.2v14.9H110.1z"/>
			<path class="st2" d="M120.1,56.1v11.1h-0.6c-0.2,0-0.3-0.1-0.3-0.3l-0.1-1.7c-0.5,0.6-1.1,1.2-1.8,1.5c-0.7,0.4-1.4,0.6-2.3,0.6
				c-0.6,0-1.2-0.1-1.6-0.3c-0.5-0.2-0.8-0.5-1.2-0.8c-0.3-0.4-0.5-0.8-0.7-1.3s-0.2-1.1-0.2-1.7v-7.1h1.1v7.1c0,1,0.2,1.9,0.7,2.5
				c0.5,0.6,1.2,0.9,2.2,0.9c0.7,0,1.4-0.2,2-0.6c0.6-0.4,1.2-0.9,1.7-1.5v-8.4H120.1z"/>
			<path class="st2" d="M131.9,67.2h-1c-0.1,0-0.2,0-0.2-0.1c-0.1-0.1-0.1-0.1-0.1-0.2l-3.4-4.9c0,0.1-0.1,0.3-0.2,0.4l-3.2,4.5
				c-0.1,0.1-0.1,0.1-0.2,0.2c-0.1,0.1-0.1,0.1-0.2,0.1h-1l4.1-5.7l-3.9-5.4h1c0.1,0,0.2,0,0.2,0.1s0.1,0.1,0.1,0.2l3.3,4.7
				c0-0.1,0-0.1,0.1-0.2c0-0.1,0.1-0.1,0.1-0.2l3.1-4.3c0-0.1,0.1-0.1,0.1-0.2c0.1,0,0.1-0.1,0.2-0.1h1l-3.9,5.4L131.9,67.2z"/>
			<path class="st2" d="M142.9,56.1v11.1h-0.6c-0.2,0-0.3-0.1-0.3-0.3l-0.1-1.7c-0.5,0.6-1.1,1.2-1.8,1.5c-0.7,0.4-1.4,0.6-2.3,0.6
				c-0.6,0-1.2-0.1-1.6-0.3c-0.5-0.2-0.8-0.5-1.2-0.8c-0.3-0.4-0.5-0.8-0.7-1.3s-0.2-1.1-0.2-1.7v-7.1h1.1v7.1c0,1,0.2,1.9,0.7,2.5
				c0.5,0.6,1.2,0.9,2.2,0.9c0.7,0,1.4-0.2,2-0.6c0.6-0.4,1.2-0.9,1.7-1.5v-8.4H142.9z"/>
			<path class="st2" d="M147.6,58.7c0.2-0.5,0.4-0.9,0.6-1.2c0.2-0.4,0.5-0.7,0.8-0.9c0.3-0.2,0.6-0.4,1-0.6
				c0.4-0.1,0.7-0.2,1.2-0.2c0.2,0,0.5,0,0.7,0.1c0.2,0,0.4,0.1,0.6,0.2l-0.1,0.7c0,0.1-0.1,0.2-0.2,0.2c-0.1,0-0.2,0-0.4-0.1
				c-0.2-0.1-0.4-0.1-0.7-0.1c-0.4,0-0.8,0.1-1.1,0.2c-0.3,0.1-0.6,0.3-0.9,0.6c-0.3,0.3-0.5,0.6-0.7,1c-0.2,0.4-0.4,0.8-0.5,1.3
				v7.2h-1.1V56.1h0.6c0.1,0,0.2,0,0.3,0.1c0.1,0.1,0.1,0.1,0.1,0.3L147.6,58.7z"/>
			<path class="st2" d="M163.5,56.1l-6.4,14.7c0,0.1-0.1,0.2-0.2,0.3c-0.1,0.1-0.2,0.1-0.3,0.1h-0.8l2-4.4l-4.7-10.7h0.9
				c0.1,0,0.2,0,0.3,0.1c0.1,0.1,0.1,0.1,0.1,0.2l3.8,8.7c0,0.1,0.1,0.2,0.1,0.3c0,0.1,0.1,0.2,0.1,0.4c0-0.1,0.1-0.2,0.1-0.4
				c0-0.1,0.1-0.2,0.1-0.3l3.7-8.7c0-0.1,0.1-0.1,0.2-0.2c0.1,0,0.1-0.1,0.2-0.1H163.5z"/>
			<path class="st2" d="M172.4,50.9v16.3h-1.1V50.9H172.4z"/>
			<path class="st2" d="M177.9,52.2c0,0.1,0,0.3-0.1,0.4c-0.1,0.1-0.1,0.2-0.2,0.3c-0.1,0.1-0.2,0.2-0.3,0.2
				c-0.1,0.1-0.2,0.1-0.4,0.1c-0.1,0-0.3,0-0.4-0.1c-0.1-0.1-0.2-0.1-0.3-0.2c-0.1-0.1-0.2-0.2-0.2-0.3c-0.1-0.1-0.1-0.2-0.1-0.4
				s0-0.3,0.1-0.4c0.1-0.1,0.1-0.2,0.2-0.3c0.1-0.1,0.2-0.2,0.3-0.2c0.1-0.1,0.2-0.1,0.4-0.1c0.1,0,0.3,0,0.4,0.1
				c0.1,0.1,0.2,0.1,0.3,0.2c0.1,0.1,0.2,0.2,0.2,0.3C177.8,51.9,177.9,52.1,177.9,52.2z M177.4,56.1v11.1h-1.1V56.1H177.4z"/>
			<path class="st2" d="M181.9,67.2v-10l-1.6-0.1c-0.2,0-0.3-0.1-0.3-0.3v-0.4h1.9V55c0-0.6,0.1-1.2,0.2-1.7
				c0.2-0.5,0.4-0.9,0.7-1.2s0.7-0.6,1.1-0.7c0.4-0.2,0.9-0.2,1.4-0.2c0.2,0,0.5,0,0.7,0.1c0.2,0,0.4,0.1,0.6,0.2l0,0.5
				c0,0.1,0,0.1-0.1,0.1s-0.1,0-0.2,0c-0.1,0-0.2,0-0.3,0c-0.1,0-0.3,0-0.5,0c-0.4,0-0.7,0.1-1,0.2c-0.3,0.1-0.6,0.3-0.8,0.5
				c-0.2,0.2-0.4,0.6-0.5,0.9c-0.1,0.4-0.2,0.9-0.2,1.4v1.4h3.6v0.8h-3.6v10H181.9z"/>
			<path class="st2" d="M188.8,61.2v0.2c0,0.8,0.1,1.6,0.3,2.2s0.5,1.2,0.8,1.6s0.8,0.8,1.3,1c0.5,0.2,1.1,0.3,1.7,0.3
				c0.6,0,1-0.1,1.5-0.2c0.4-0.1,0.8-0.3,1-0.4c0.3-0.2,0.5-0.3,0.7-0.4s0.3-0.2,0.4-0.2c0.1,0,0.2,0,0.2,0.1l0.3,0.4
				c-0.2,0.2-0.4,0.4-0.7,0.6s-0.6,0.4-1,0.5c-0.4,0.1-0.8,0.2-1.2,0.3c-0.4,0.1-0.8,0.1-1.2,0.1c-0.8,0-1.5-0.1-2.1-0.4
				c-0.6-0.3-1.2-0.7-1.6-1.2c-0.4-0.5-0.8-1.1-1-1.9c-0.2-0.7-0.4-1.6-0.4-2.5c0-0.8,0.1-1.5,0.3-2.2c0.2-0.7,0.6-1.3,1-1.7
				c0.4-0.5,1-0.9,1.6-1.1c0.6-0.3,1.3-0.4,2.1-0.4c0.6,0,1.2,0.1,1.7,0.3s1,0.5,1.4,0.9c0.4,0.4,0.7,0.9,0.9,1.5
				c0.2,0.6,0.3,1.3,0.3,2.1c0,0.2,0,0.3-0.1,0.3c0,0.1-0.1,0.1-0.2,0.1H188.8z M196.2,60.5c0-0.6-0.1-1.1-0.3-1.6s-0.4-0.9-0.7-1.2
				c-0.3-0.3-0.7-0.6-1.1-0.8c-0.4-0.2-0.9-0.3-1.4-0.3c-0.6,0-1.1,0.1-1.5,0.3c-0.5,0.2-0.8,0.4-1.2,0.8c-0.3,0.3-0.6,0.7-0.8,1.2
				c-0.2,0.5-0.3,1-0.4,1.6H196.2z"/>
			<path class="st2" d="M205.9,60.1h5.2V61h-5.2V60.1z"/>
			<path class="st2" d="M225.9,58.5c0.9,0,1.7,0.1,2.3,0.3s1.2,0.5,1.6,0.8c0.4,0.4,0.8,0.8,1,1.3c0.2,0.5,0.3,1.1,0.3,1.7
				c0,0.7-0.1,1.3-0.4,1.9c-0.2,0.6-0.6,1-1,1.4s-1,0.7-1.7,0.9s-1.4,0.3-2.3,0.3H221V51.3h9.6v0.9h-8.5v6.3H225.9z M225.9,66.3
				c1.4,0,2.4-0.3,3.1-0.9c0.7-0.6,1-1.5,1-2.6c0-1.1-0.3-2-1-2.5c-0.7-0.6-1.7-0.8-3.1-0.8h-3.7v6.8H225.9z"/>
			<path class="st2" d="M242.6,56.1l-6.4,14.7c0,0.1-0.1,0.2-0.2,0.3c-0.1,0.1-0.2,0.1-0.3,0.1h-0.8l2-4.4l-4.7-10.7h0.9
				c0.1,0,0.2,0,0.3,0.1c0.1,0.1,0.1,0.1,0.1,0.2l3.8,8.7c0,0.1,0.1,0.2,0.1,0.3c0,0.1,0.1,0.2,0.1,0.4c0-0.1,0.1-0.2,0.1-0.4
				c0-0.1,0.1-0.2,0.1-0.3l3.7-8.7c0-0.1,0.1-0.1,0.2-0.2s0.1-0.1,0.2-0.1H242.6z"/>
			<path class="st2" d="M254.9,66.4v4.4c0,0.2-0.1,0.4-0.3,0.4h-0.6v-4h-10.7v3.7c0,0.1,0,0.2-0.1,0.2c0,0.1-0.1,0.1-0.2,0.1h-0.7
				v-4.8h0.4c0.3,0,0.5-0.1,0.8-0.2c0.3-0.1,0.5-0.3,0.8-0.6c0.3-0.3,0.5-0.7,0.7-1.2c0.2-0.5,0.4-1.1,0.6-1.9
				c0.2-0.8,0.3-1.7,0.5-2.8c0.1-1.1,0.2-2.3,0.3-3.8h6.4v10.3H254.9z M251.8,66.4v-9.5h-4.5c-0.1,1.5-0.2,2.8-0.4,3.9
				c-0.2,1.1-0.4,2-0.6,2.8c-0.2,0.8-0.5,1.4-0.7,1.8c-0.3,0.5-0.5,0.8-0.8,1.1H251.8z"/>
			<path class="st2" d="M261.1,60.7c0.8,0,1.4,0.1,1.9,0.3s0.9,0.4,1.2,0.7c0.3,0.3,0.5,0.6,0.7,1c0.1,0.4,0.2,0.8,0.2,1.2
				c0,0.5-0.1,0.9-0.3,1.3s-0.4,0.8-0.8,1c-0.3,0.3-0.7,0.5-1.2,0.7c-0.5,0.2-1.1,0.2-1.7,0.2h-4V56.1h1v4.7H261.1z M261.2,66.4
				c0.5,0,0.9-0.1,1.3-0.2c0.4-0.1,0.7-0.3,0.9-0.5c0.2-0.2,0.4-0.5,0.5-0.8s0.2-0.6,0.2-1c0-0.3-0.1-0.6-0.2-0.9
				c-0.1-0.3-0.3-0.5-0.5-0.8s-0.5-0.4-0.9-0.5s-0.9-0.2-1.4-0.2h-2.9v4.9H261.2z"/>
			<path class="st2" d="M277.6,56.1c0.7,0,1.2,0.1,1.7,0.2c0.5,0.1,0.9,0.3,1.1,0.6c0.3,0.2,0.5,0.5,0.6,0.8c0.1,0.3,0.2,0.6,0.2,1
				c0,0.2,0,0.5-0.1,0.8c-0.1,0.3-0.2,0.5-0.4,0.8c-0.2,0.3-0.4,0.5-0.7,0.7c-0.3,0.2-0.7,0.4-1.1,0.4c1,0.1,1.8,0.4,2.2,0.9
				c0.5,0.5,0.7,1.1,0.7,1.8c0,0.5-0.1,0.9-0.3,1.3c-0.2,0.4-0.5,0.7-0.8,1s-0.8,0.5-1.3,0.6s-1,0.2-1.6,0.2h-4V56.1H277.6z
				 M274.9,56.8v4.3h2.6c0.4,0,0.8-0.1,1.1-0.2c0.3-0.1,0.6-0.3,0.9-0.5c0.2-0.2,0.4-0.4,0.6-0.7c0.1-0.3,0.2-0.6,0.2-0.9
				c0-0.3,0-0.5-0.1-0.7c-0.1-0.2-0.3-0.4-0.5-0.6c-0.2-0.2-0.5-0.3-0.9-0.4c-0.4-0.1-0.8-0.2-1.3-0.2H274.9z M277.8,66.4
				c0.5,0,0.9-0.1,1.3-0.2c0.4-0.1,0.7-0.3,1-0.5c0.3-0.2,0.5-0.5,0.6-0.8s0.2-0.6,0.2-1c0-0.3-0.1-0.6-0.2-0.9s-0.3-0.5-0.5-0.7
				c-0.2-0.2-0.6-0.4-0.9-0.5s-0.8-0.2-1.4-0.2h-2.9v4.7H277.8z"/>
			<path class="st2" d="M299.8,56.9h-4.7v10.3h-1.1V56.9h-4.7v-0.8h10.4V56.9z"/>
			<path class="st2" d="M303.1,58.1c0.5-0.7,1.1-1.2,1.7-1.6c0.7-0.4,1.4-0.6,2.2-0.6c1.4,0,2.4,0.5,3.2,1.4
				c0.8,0.9,1.1,2.4,1.1,4.3c0,0.8-0.1,1.6-0.3,2.3s-0.5,1.3-0.9,1.8c-0.4,0.5-0.9,0.9-1.5,1.2s-1.3,0.4-2.1,0.4
				c-0.8,0-1.4-0.1-2-0.4s-1-0.7-1.4-1.2v5.4H302V56.1h0.6c0.2,0,0.3,0.1,0.3,0.3L303.1,58.1z M303.1,64.8c0.2,0.3,0.4,0.6,0.7,0.8
				s0.5,0.4,0.7,0.5c0.3,0.1,0.5,0.2,0.8,0.3s0.6,0.1,0.9,0.1c0.7,0,1.2-0.1,1.7-0.4c0.5-0.2,0.9-0.6,1.2-1c0.3-0.4,0.6-1,0.8-1.6
				c0.2-0.6,0.3-1.3,0.3-2c0-1.7-0.3-2.9-0.9-3.7s-1.5-1.2-2.6-1.2c-0.7,0-1.4,0.2-2,0.6s-1.1,0.9-1.6,1.6V64.8z"/>
			<path class="st2" d="M314.8,61.2v0.2c0,0.8,0.1,1.6,0.3,2.2s0.5,1.2,0.8,1.6s0.8,0.8,1.3,1c0.5,0.2,1.1,0.3,1.7,0.3
				c0.6,0,1-0.1,1.5-0.2c0.4-0.1,0.8-0.3,1-0.4c0.3-0.2,0.5-0.3,0.7-0.4s0.3-0.2,0.4-0.2c0.1,0,0.2,0,0.2,0.1l0.3,0.4
				c-0.2,0.2-0.4,0.4-0.7,0.6s-0.6,0.4-1,0.5c-0.4,0.1-0.8,0.2-1.2,0.3c-0.4,0.1-0.8,0.1-1.2,0.1c-0.8,0-1.5-0.1-2.1-0.4
				c-0.6-0.3-1.2-0.7-1.6-1.2c-0.4-0.5-0.8-1.1-1-1.9c-0.2-0.7-0.4-1.6-0.4-2.5c0-0.8,0.1-1.5,0.3-2.2c0.2-0.7,0.6-1.3,1-1.7
				c0.4-0.5,1-0.9,1.6-1.1c0.6-0.3,1.3-0.4,2.1-0.4c0.6,0,1.2,0.1,1.7,0.3s1,0.5,1.4,0.9c0.4,0.4,0.7,0.9,0.9,1.5
				c0.2,0.6,0.3,1.3,0.3,2.1c0,0.2,0,0.3-0.1,0.3c0,0.1-0.1,0.1-0.2,0.1H314.8z M322.2,60.5c0-0.6-0.1-1.1-0.3-1.6s-0.4-0.9-0.7-1.2
				c-0.3-0.3-0.7-0.6-1.1-0.8c-0.4-0.2-0.9-0.3-1.4-0.3c-0.6,0-1.1,0.1-1.5,0.3c-0.5,0.2-0.8,0.4-1.2,0.8c-0.3,0.3-0.6,0.7-0.8,1.2
				c-0.2,0.5-0.3,1-0.4,1.6H322.2z"/>
			<path class="st2" d="M334.8,56.1v11.1h-1.1v-5.6h-6.6v5.6h-1.1V56.1h1.1v4.7h6.6v-4.7H334.8z"/>
			<path class="st2" d="M349.6,66.4v4.4c0,0.2-0.1,0.4-0.3,0.4h-0.6v-4h-10.7v3.7c0,0.1,0,0.2-0.1,0.2c0,0.1-0.1,0.1-0.2,0.1H337
				v-4.8h0.4c0.3,0,0.5-0.1,0.8-0.2c0.3-0.1,0.5-0.3,0.8-0.6c0.3-0.3,0.5-0.7,0.7-1.2c0.2-0.5,0.4-1.1,0.6-1.9
				c0.2-0.8,0.3-1.7,0.5-2.8c0.1-1.1,0.2-2.3,0.3-3.8h6.4v10.3H349.6z M346.5,66.4v-9.5H342c-0.1,1.5-0.2,2.8-0.4,3.9
				c-0.2,1.1-0.4,2-0.6,2.8c-0.2,0.8-0.5,1.4-0.7,1.8c-0.3,0.5-0.5,0.8-0.8,1.1H346.5z"/>
			<path class="st2" d="M352.1,61.2v0.2c0,0.8,0.1,1.6,0.3,2.2s0.5,1.2,0.8,1.6s0.8,0.8,1.3,1c0.5,0.2,1.1,0.3,1.7,0.3
				c0.6,0,1-0.1,1.5-0.2c0.4-0.1,0.8-0.3,1-0.4c0.3-0.2,0.5-0.3,0.7-0.4s0.3-0.2,0.4-0.2c0.1,0,0.2,0,0.2,0.1l0.3,0.4
				c-0.2,0.2-0.4,0.4-0.7,0.6s-0.6,0.4-1,0.5c-0.4,0.1-0.8,0.2-1.2,0.3c-0.4,0.1-0.8,0.1-1.2,0.1c-0.8,0-1.5-0.1-2.1-0.4
				c-0.6-0.3-1.2-0.7-1.6-1.2c-0.4-0.5-0.8-1.1-1-1.9c-0.2-0.7-0.4-1.6-0.4-2.5c0-0.8,0.1-1.5,0.3-2.2c0.2-0.7,0.6-1.3,1-1.7
				c0.4-0.5,1-0.9,1.6-1.1c0.6-0.3,1.3-0.4,2.1-0.4c0.6,0,1.2,0.1,1.7,0.3s1,0.5,1.4,0.9c0.4,0.4,0.7,0.9,0.9,1.5
				c0.2,0.6,0.3,1.3,0.3,2.1c0,0.2,0,0.3-0.1,0.3c0,0.1-0.1,0.1-0.2,0.1H352.1z M359.6,60.5c0-0.6-0.1-1.1-0.3-1.6s-0.4-0.9-0.7-1.2
				c-0.3-0.3-0.7-0.6-1.1-0.8c-0.4-0.2-0.9-0.3-1.4-0.3c-0.6,0-1.1,0.1-1.5,0.3c-0.5,0.2-0.8,0.4-1.2,0.8c-0.3,0.3-0.6,0.7-0.8,1.2
				c-0.2,0.5-0.3,1-0.4,1.6H359.6z"/>
		</g>
		<g>
			<g>
				<g class="st3">
					<g>
						<path class="st4" d="M297,16c5.1,1.4,8.2,5.5,8.3,11.3l0,0c0.1,1-0.4,2.1-2.2,2.1h-17.8c0.6,3.7,3.7,6.7,8.2,6.7
							c2.1,0,4.2-0.5,6-1.9c1.6-1.4,3.9,0.4,2.2,2.2c-2.1,1.9-5.1,2.7-8,2.7c-3.5,0-7-1.3-9.1-4c-4.9-6.4-2.7-16.7,5.6-19.1
							C292.3,15.4,294.7,15.4,297,16L297,16z M285.2,26.6h17c-0.3-3.8-2.7-6.8-6.2-7.7l0,0c-1.5-0.4-3.3-0.4-4.9,0
							C287.5,19.9,285.4,22.9,285.2,26.6z"/>
					</g>
					<g>
						<path class="st4" d="M329.8,25.6c0-4.1-3.3-7-7-7c-4.4,0-8.5,3.6-8.5,8.5v10.4c0,1-0.6,1.6-1.6,1.6s-1.7-0.6-1.7-1.6V17.4
							c0-2.1,3.2-2.1,3.2,0v2.8c1.6-3.3,5.1-4.7,8.6-4.7c5.2,0,10.2,3.6,10.2,10.1v11.9c0,1-0.6,1.6-1.6,1.6s-1.7-0.6-1.7-1.6V25.6
							H329.8z"/>
					</g>
					<g>
						<path class="st4" d="M350.3,15.7c3,0,5.9,1.3,7.3,3.6v-9c0-2.1,3.3-2.1,3.3,0v27.2c0,1-0.6,1.6-1.7,1.6c-1,0-1.5-0.6-1.5-1.6
							v-2.1c-1.5,2.8-4.7,4-7.4,4c-1.4,0-2.9-0.3-4.3-0.9l0,0c-4.9-2-7.4-6.5-7.2-11.7C338.9,20.5,343.5,15.7,350.3,15.7z
							 M357.6,29.2v-3.6c0-4-3.1-6.8-7.2-6.9c-3.2,0-6.4,1.7-7.7,4.8c-0.4,0.9-0.6,2.2-0.7,3.3c0,2.9,0.9,5.6,3.3,7.7
							c1.3,1,2.9,1.6,4.6,1.7C354.1,36.3,357.6,33.7,357.6,29.2z"/>
					</g>
					<g class="st3">
						<path class="st4" d="M265.2,10.2c2.2,0,2.2,3.1,0,3.1h-10c0,8.1,0,16.3,0,24.4c0,1.1-0.9,1.7-1.7,1.7s-1.6-0.5-1.6-1.7V13.3
							h-10c-2.1,0-2.1-3.1,0-3.1C241.9,10.2,265.2,10.2,265.2,10.2z"/>
					</g>
					<g class="st3">
						<path class="st4" d="M271.5,19.7c1.4-3,4.1-3.8,6.7-3.8c1,0,1.7,0.5,1.7,1.6c0,1-0.7,1.5-1.7,1.5c-4.6,0-6.6,3.7-6.6,8.2v10.2
							c0,0.9-0.8,1.6-1.6,1.6c-1,0-1.7-0.6-1.7-1.6v-20c0-2,3.2-2.2,3.2,0V19.7z"/>
					</g>
				</g>
				<g class="st3">
					<g>
						<path class="st4" d="M132.9,38.5c0,0.4-0.4,0.8-0.8,0.8c-0.5,0-0.8-0.4-0.8-0.8V10.2c0-0.4,0.3-0.8,0.8-0.8
							c0.4,0,0.8,0.4,0.8,0.8V38.5z"/>
					</g>
					<g>
						<path class="st4" d="M141.4,35.1c-2-2.4-2.9-5.2-2.7-8.6c0.4-4.8,3.4-9.2,8.2-10.6c2.1-0.5,4.5-0.6,6.8,0
							c4.9,1.4,7.9,5.8,8.3,10.6c0.2,3.4-0.7,6.2-2.7,8.6c-2.2,2.6-5.4,4-9,4S143.6,37.7,141.4,35.1z M147.5,17.5
							c-7,1.8-9.4,11.2-4.8,16.6c1.8,2.2,4.7,3.5,7.7,3.5c3.1,0,5.9-1.3,7.8-3.5c4.6-5.5,2.1-14.8-4.9-16.6
							C151.4,17.1,149.3,17,147.5,17.5z"/>
					</g>
					<g>
						<path class="st4" d="M189.7,26.9c0.1,5.3-2.3,9.7-7.2,11.7c-3.4,1.4-7,1-9.9-0.7c-1.5-1-2.6-2.2-3.3-4v4.5
							c0,0.5-0.3,0.8-0.8,0.8s-0.8-0.3-0.8-0.8V10.2c0-0.5,0.3-0.8,0.8-0.8s0.8,0.3,0.8,0.8V21c1.5-3.5,4.9-5.3,8.7-5.4
							c1.7,0,3.3,0.2,4.8,0.9C187.2,18.1,189.6,22.3,189.7,26.9z M178.7,37.8c2-0.1,4-0.8,5.5-2c2.9-2.3,4.1-5.5,4-9
							c0-1.3-0.3-2.7-0.8-3.9c-1.5-3.7-5.4-5.8-9.2-5.7c-5,0.2-8.4,3.7-8.7,8.3v3.9c0.2,3.3,1.7,6,4.7,7.4
							C175.6,37.5,177.1,37.9,178.7,37.8z"/>
					</g>
					<g>
						<path class="st4" d="M205.8,15.6c1.9,0,3.8,0.5,5.4,1.4c1.5,1,2.6,2.4,3.3,4.2v-4.5c0-0.5,0.3-0.8,0.8-0.8s0.8,0.3,0.8,0.8
							v21.6c0,0.5-0.3,0.8-0.8,0.8s-0.8-0.3-0.8-0.8v-4.5c-0.7,1.8-1.8,3.2-3.3,4.2c-2.8,1.7-6.4,2.1-9.9,0.7
							c-4.9-2-7.3-6.4-7.2-11.7c0.1-4.5,2.6-8.7,6.8-10.4C202.5,15.8,204.1,15.6,205.8,15.6z M214.5,29.4v-3.9
							c-0.2-3.3-1.7-6-4.7-7.4c-1.3-0.6-2.6-0.9-4-0.9c-3.8,0-7.7,2-9.2,5.7c-0.5,1.2-0.8,2.6-0.8,3.9c-0.1,3.5,1,6.7,4,9
							c1.6,1.2,3.5,1.9,5.5,2c1.6,0,3.1-0.3,4.5-1C212.8,35.4,214.3,32.7,214.5,29.4z"/>
					</g>
					<g>
						<path class="st4" d="M225,38.5c0,0.4-0.4,0.8-0.8,0.8c-0.5,0-0.8-0.4-0.8-0.8V10.2c0-0.4,0.3-0.8,0.8-0.8
							c0.4,0,0.8,0.4,0.8,0.8V38.5z"/>
					</g>
					<g class="st3">
						<g>
							<path class="st4" d="M113.2,39.3c-7.7-0.1-14.4-6.5-14.1-15C99.3,17.4,104,11,111,9.9c4.5-0.7,9.8,0.6,12.9,4
								c0.7,0.9-0.4,1.8-1.1,1c-2.7-3.1-7.6-4.2-11.6-3.6c-6.3,1-10.5,6.8-10.7,13c-0.2,7.5,5.8,13.3,12.7,13.5
								c3.9,0,8.1-1.7,10.3-4.9v-7.5h-9.6c-0.9,0-0.9-1.4,0-1.4H124c0.6,0,0.8,0.4,0.8,0.9v8c0,0.4,0,0.8-0.3,1
								C122,37.4,117.5,39.3,113.2,39.3z"/>
						</g>
					</g>
				</g>
			</g>
			<g>
				
					<linearGradient id="SVGID_1_" gradientUnits="userSpaceOnUse" x1="861.2459" y1="-473.5905" x2="882.416" y2="-452.4105" gradientTransform="matrix(1 0 0 -1 -617.45 -443.03)">
					<stop  offset="0" style="stop-color:#F6F2B8"/>
					<stop  offset="0.42" style="stop-color:#DFA857"/>
					<stop  offset="0.76" style="stop-color:#F6F2B8"/>
					<stop  offset="1" style="stop-color:#B78649"/>
				</linearGradient>
				<path class="st5" d="M266,11.2c0.9,0,1.5,0.7,1.5,1.6s-0.7,1.5-1.5,1.5h-10v24.4c0,0.9-0.7,1.7-1.7,1.7l0,0
					c-0.9,0-1.6-0.7-1.6-1.6v-0.1V14.4h-10c-0.9,0-1.6-0.7-1.6-1.5c0-0.9,0.7-1.6,1.6-1.6l0,0L266,11.2z"/>
				
					<linearGradient id="SVGID_2_" gradientUnits="userSpaceOnUse" x1="882.0276" y1="-477.6068" x2="898.5048" y2="-461.1197" gradientTransform="matrix(1 0 0 -1 -617.45 -443.03)">
					<stop  offset="0" style="stop-color:#F6F2B8"/>
					<stop  offset="0.42" style="stop-color:#DFA857"/>
					<stop  offset="0.76" style="stop-color:#F6F2B8"/>
					<stop  offset="1" style="stop-color:#B78649"/>
				</linearGradient>
				<path class="st6" d="M272.3,20.7c1.4-3,4.1-3.8,6.7-3.8c0.8-0.1,1.6,0.4,1.7,1.3l0,0c0,0.1,0,0.2,0,0.3c0,1-0.7,1.5-1.7,1.5
					c-4.6,0-6.6,3.7-6.6,8.2v10.2c0,0.9-0.7,1.6-1.5,1.6h-0.1c-0.8,0.1-1.6-0.6-1.7-1.4c0-0.1,0-0.1,0-0.2v-20c0-2,3.2-2.2,3.2,0
					V20.7z"/>
				
					<linearGradient id="SVGID_3_" gradientUnits="userSpaceOnUse" x1="903.3985" y1="-479.9108" x2="920.2785" y2="-463.0208" gradientTransform="matrix(1 0 0 -1 -617.45 -443.03)">
					<stop  offset="0" style="stop-color:#F6F2B8"/>
					<stop  offset="0.42" style="stop-color:#DFA857"/>
					<stop  offset="0.76" style="stop-color:#F6F2B8"/>
					<stop  offset="1" style="stop-color:#B78649"/>
				</linearGradient>
				<path class="st7" d="M297.7,17c5.1,1.4,8.2,5.5,8.3,11.3l0,0c0.1,1-0.4,2.1-2.2,2.1H286c0.7,4,4.2,6.9,8.2,6.7
					c2.2,0,4.3-0.6,6-1.9c1.6-1.4,3.9,0.4,2.2,2.2c-5.2,4.1-12.6,3.5-17.1-1.3c-4.9-6.4-2.7-16.8,5.6-19.1
					C293.1,16.4,295.4,16.4,297.7,17L297.7,17z M285.9,27.6h17c-0.2-3.6-2.7-6.7-6.2-7.6l0,0c-1.6-0.4-3.3-0.4-4.9,0
					C288.4,20.9,286,24,285.9,27.6L285.9,27.6z"/>
				
					<linearGradient id="SVGID_4_" gradientUnits="userSpaceOnUse" x1="929.2857" y1="-482.3718" x2="948.7738" y2="-462.8835" gradientTransform="matrix(1 0 0 -1 -617.45 -443.03)">
					<stop  offset="0" style="stop-color:#F6F2B8"/>
					<stop  offset="0.42" style="stop-color:#DFA857"/>
					<stop  offset="0.76" style="stop-color:#F6F2B8"/>
					<stop  offset="1" style="stop-color:#B78649"/>
				</linearGradient>
				<path class="st8" d="M330.5,26.6c0-3.9-3.1-7-7-7c-4.7,0-8.4,3.8-8.5,8.5v10.4c0.1,0.8-0.5,1.5-1.3,1.6l0,0c-0.1,0-0.2,0-0.3,0
					c-0.8,0.1-1.6-0.5-1.7-1.3c0-0.1,0-0.2,0-0.2V18.4c0-0.9,0.7-1.6,1.6-1.6l0,0c0.9,0,1.6,0.7,1.6,1.6v2.8
					c1.6-3.3,5.1-4.7,8.6-4.7c5.2,0,10.2,3.6,10.2,10.1v11.9c0.1,0.8-0.5,1.5-1.3,1.6l0,0h-0.3c-0.8,0.1-1.6-0.5-1.7-1.4
					c0-0.1,0-0.1,0-0.2L330.5,26.6z"/>
				
					<linearGradient id="SVGID_5_" gradientUnits="userSpaceOnUse" x1="961.2337" y1="-480.9279" x2="983.7844" y2="-458.377" gradientTransform="matrix(1 0 0 -1 -617.45 -443.03)">
					<stop  offset="0" style="stop-color:#F6F2B8"/>
					<stop  offset="0.42" style="stop-color:#DFA857"/>
					<stop  offset="0.76" style="stop-color:#F6F2B8"/>
					<stop  offset="1" style="stop-color:#B78649"/>
				</linearGradient>
				<path class="st9" d="M351,16.7c3,0,5.9,1.3,7.3,3.6v-9c0-2.1,3.3-2.1,3.3,0v27.2c0,0.8-0.6,1.5-1.4,1.6h-0.3
					c-0.8,0.1-1.5-0.5-1.5-1.2l0,0c0-0.1,0-0.2,0-0.3v-2.2c-1.6,2.6-4.4,4.1-7.4,4c-1.5,0-3-0.3-4.3-0.9l0,0
					c-4.9-2-7.4-6.5-7.2-11.7c-0.1-6.1,4.9-11.1,11-11.2l0,0L351,16.7z M358.3,30.3v-3.5c0-4-3.1-6.8-7.1-6.9
					c-3.3-0.1-6.3,1.8-7.7,4.8c-0.4,1.1-0.6,2.2-0.7,3.3c-0.2,2.9,1.1,5.8,3.3,7.7c1.3,1,2.9,1.6,4.6,1.7
					C354.8,37.3,358.3,34.7,358.3,30.3L358.3,30.3z"/>
			</g>
		</g>
		<g>
			<g>
				<path class="st4" d="M75.5,48.5c0,0-3,21.8-31.1,28.6C44.4,77.1,45.1,49.3,75.5,48.5z"/>
				<path class="st4" d="M75.5,15.4c0,0-24,5.4-33.8,33.1c-2.6,9.7-4,19.5-1.3,29.5c0,0-1.6-10.8,7.4-22s29-12.8,29-12.8
					S80.8,32.8,75.5,15.4z"/>
				<path class="st4" d="M36.3,78.1c0,0-6.8-29.8,12.8-50c7.3-7.2,17.8-13.6,17.8-13.6L61.8,0c0,0-19.9,10-28.1,32.2
					S33.5,75.2,36.3,78.1z"/>
				<path class="st4" d="M38.2,4.9c1.8,1.6,3.1,3.7,3.6,6c1.1-1.3,2-2.4,2.8-3.3C42.5,6.6,40.4,5.7,38.2,4.9z M39.4,4.5
					c2.5,0.9,5.5,2.4,5.7,2.5h0.1c1-1,1.5-1.5,1.5-1.5C44.3,4.9,41.8,4.5,39.4,4.5L39.4,4.5z M41.2,11.5c-0.5-2.8-2.2-5.2-4.6-6.8
					c-1.4,1.5-2.6,3.1-3.5,4.9c-0.8,1.9-1.4,3.9-1.8,5.9C31,16.8,30.8,18,30.7,19c1.5,0.2,3.2,0.4,5,0.6l0,0
					C37.3,16.8,39.1,14.1,41.2,11.5C41.1,11.6,41.2,11.5,41.2,11.5L41.2,11.5z M30.6,19.7c-0.2,1.4-0.3,2.6-0.5,3.6
					c-0.4,3.3-0.5,5.9-0.7,8.2V32h0.2c0.1,0,0.2,0.1,0.3,0.1c1.4-4.1,3.3-8.1,5.5-11.9C33.6,20.1,32,19.9,30.6,19.7L30.6,19.7z
					 M29.6,32.7h-0.2c0,0.4,0,0.8-0.1,1.2C29.4,33.5,29.5,33.1,29.6,32.7L29.6,32.7z M14.1,13c-4,3.1-7.4,7-9.8,11.4
					C4.7,25,6.7,27.8,15,29.8c0.6-3.8,1.8-7.5,3.5-11c0.3-0.6,0.6-1.3,1-2C15.9,15.3,14.5,13.7,14.1,13z M20.3,17.1
					c-0.4,0.7-0.7,1.4-1,2c-1.7,3.4-2.8,7.1-3.5,10.8c4.3,0.9,8.6,1.6,12.9,1.9v-0.4c0.1-2.4,0.3-5,0.7-8.3c0.1-1,0.2-2.2,0.5-3.6
					C26.6,19.1,23.3,18.3,20.3,17.1L20.3,17.1z M28.7,32.6c-4.4-0.3-8.7-0.9-13-1.9c-0.2,1.2-0.3,2.3-0.4,3.2
					c-0.4,3.2-0.5,6.5-0.3,9.7c4,0.6,8,1,12.1,1.2l0,0c0.3-2.8,0.8-5.6,1.6-8.3c0-0.1-0.1-0.1-0.1-0.2
					C28.6,35.4,28.6,34.1,28.7,32.6L28.7,32.6z M26.9,45.6c-4-0.2-8-0.6-12-1.1c0.1,1.3,0.2,2.6,0.4,3.9c0.3,3.2,1,6.4,1.9,9.6
					c2.8,0.4,6,0.7,9.8,1c0.1,0,0.1,0,0.2,0C26.5,54.5,26.4,50,26.9,45.6L26.9,45.6z M27.2,59.6c-0.1,0.1-0.2,0.1-0.3,0.1l0,0
					c-3.6-0.3-6.8-0.6-9.5-1c0.6,1.8,1.3,3.5,2.2,5.2c1.2,2.6,2.8,5,4.6,7.2c2.3,0.3,4.5,0.6,6,0.7C28.8,67.8,27.7,63.7,27.2,59.6
					L27.2,59.6z M30.5,72.6c-0.5,0-2.7-0.3-5.5-0.7c1.2,1.3,2.6,2.5,4.2,3.5c1,0.6,2.1,1.2,3.2,1.7C31.7,75.5,31,74,30.5,72.6
					L30.5,72.6z M32.8,78.1h-0.2L32.3,78c-1.2-0.5-2.4-1.1-3.6-1.8c-1.8-1.2-3.5-2.6-4.9-4.3c-3.4-0.4-6.7-1.1-10-2
					c5.5,4.6,12.1,7.7,19.2,8.7C33,78.4,32.9,78.2,32.8,78.1L32.8,78.1z M18.9,64.3c-0.9-1.8-1.7-3.7-2.3-5.6
					c-8.3-1.2-12.3-2.8-14.1-3.8c1.8,4.8,4.8,9.1,8.6,12.5l0.1,0.1l0.8,0.8l0,0c1.1,1,6.2,2,11,2.7C21.4,68.8,20,66.6,18.9,64.3
					L18.9,64.3z M16.3,57.8c-0.9-3-1.5-6.1-1.8-9.3c-0.2-1.4-0.3-2.8-0.4-4.2c-9-1.5-12.6-3.7-14.1-5.1c0,1,0,2,0,2.9
					c0,0.2,0,0.3,0.1,0.5l0,0c0.1,3.8,0.7,7.5,2,11l0,0C3.1,54.4,6.5,56.3,16.3,57.8L16.3,57.8z M3.9,25.3c-2,4.1-3.3,8.5-3.7,13
					C1,39.4,4,42,14.1,43.7c-0.2-3.2,0-6.5,0.3-9.7c0.1-1,0.3-2.1,0.4-3.3l0,0C7.3,28.7,4.7,26.3,3.9,25.3L3.9,25.3z M27.3,8.7
					c-2.8,2-5.1,4.7-6.7,7.8c3,1.2,6.2,2,9.4,2.4c0.2-1,0.4-2.2,0.6-3.4c0.4-2.1,1-4.1,1.8-6.1c0.8-1.5,1.8-3,3-4.3
					C32.6,5.9,29.8,7.1,27.3,8.7L27.3,8.7z M14.7,12.6c0.4,0.6,1.7,2.1,5.3,3.6c1.6-3.2,4-6,6.9-8.1c2-1.3,4.1-2.4,6.4-3.2
					C26.5,5.9,20.1,8.5,14.7,12.6L14.7,12.6z"/>
			</g>
			<g>
				
					<linearGradient id="SVGID_6_" gradientUnits="userSpaceOnUse" x1="659.1292" y1="-515.6706" x2="694.8387" y2="-495.0551" gradientTransform="matrix(1 0 0 -1 -617.45 -443.03)">
					<stop  offset="0" style="stop-color:#F6F2B8"/>
					<stop  offset="0.42" style="stop-color:#DFA857"/>
					<stop  offset="0.76" style="stop-color:#F6F2B8"/>
					<stop  offset="1" style="stop-color:#B78649"/>
				</linearGradient>
				<path class="st10" d="M75.7,49.1c0,0-3,21.8-31.1,28.6C44.7,77.8,45.3,50,75.7,49.1z"/>
				
					<linearGradient id="SVGID_7_" gradientUnits="userSpaceOnUse" x1="648.539" y1="-505.1577" x2="701.9706" y2="-474.3066" gradientTransform="matrix(1 0 0 -1 -617.45 -443.03)">
					<stop  offset="0" style="stop-color:#F6F2B8"/>
					<stop  offset="0.42" style="stop-color:#DFA857"/>
					<stop  offset="0.76" style="stop-color:#F6F2B8"/>
					<stop  offset="1" style="stop-color:#B78649"/>
				</linearGradient>
				<path class="st11" d="M75.7,16c0,0-24,5.4-33.8,33.1c-2.6,9.7-4,19.5-1.3,29.5c0,0-1.6-10.8,7.4-22s29-12.8,29-12.8
					S81.1,33.4,75.7,16z"/>
				
					<linearGradient id="SVGID_8_" gradientUnits="userSpaceOnUse" x1="640.0965" y1="-498.0233" x2="693.1645" y2="-467.383" gradientTransform="matrix(1 0 0 -1 -617.45 -443.03)">
					<stop  offset="0" style="stop-color:#F6F2B8"/>
					<stop  offset="0.42" style="stop-color:#DFA857"/>
					<stop  offset="0.76" style="stop-color:#F6F2B8"/>
					<stop  offset="1" style="stop-color:#B78649"/>
				</linearGradient>
				<path class="st12" d="M36.5,78.7c0,0-6.8-29.8,12.8-50C56.5,21.4,67,15.1,67,15.1L62,0.6c0,0-19.8,9.9-28.1,32.2
					S33.8,75.9,36.5,78.7z"/>
				
					<linearGradient id="SVGID_9_" gradientUnits="userSpaceOnUse" x1="626.8192" y1="-511.5949" x2="663.2009" y2="-448.5667" gradientTransform="matrix(1 0 0 -1 -617.45 -443.03)">
					<stop  offset="0" style="stop-color:#F6F2B8"/>
					<stop  offset="0.42" style="stop-color:#DFA857"/>
					<stop  offset="0.76" style="stop-color:#F6F2B8"/>
					<stop  offset="1" style="stop-color:#B78649"/>
				</linearGradient>
				<path class="st13" d="M38.4,5.5c1.8,1.6,3.1,3.7,3.6,6c1.1-1.3,2-2.4,2.8-3.3C42.8,7.2,40.6,6.3,38.4,5.5z M39.6,5.2
					c2.5,0.9,5.5,2.4,5.7,2.5h0.1c1-1,1.5-1.5,1.5-1.5C44.5,5.5,42.1,5.2,39.6,5.2L39.6,5.2z M41.4,12.2c-0.5-2.8-2.2-5.2-4.6-6.8
					c-1.4,1.5-2.6,3.1-3.5,4.9c-0.8,1.9-1.4,3.9-1.8,5.9c-0.3,1.2-0.5,2.4-0.6,3.4c1.5,0.2,3.2,0.4,5,0.6l0,0
					C37.6,17.4,39.4,14.8,41.4,12.2L41.4,12.2L41.4,12.2z M30.8,20.3c-0.2,1.4-0.3,2.6-0.5,3.6c-0.4,3.3-0.5,5.9-0.7,8.2v0.4h0.2
					c0.1,0,0.2,0.1,0.3,0.1c1.4-4.1,3.3-8.1,5.5-11.9C33.9,20.7,32.3,20.5,30.8,20.3L30.8,20.3z M29.8,33.3h-0.2
					c0,0.4,0,0.8-0.1,1.2C29.6,34.1,29.7,33.7,29.8,33.3L29.8,33.3z M14.2,13.6c-4,3.1-7.4,7-9.8,11.4c0.4,0.6,2.4,3.4,10.7,5.4
					c0.6-3.8,1.8-7.5,3.5-11c0.3-0.6,0.6-1.3,1-2C16.2,16,14.7,14.4,14.2,13.6L14.2,13.6z M20.4,17.8c-0.4,0.7-0.7,1.4-1,2
					c-1.7,3.4-2.8,7.1-3.4,10.8c4.3,0.9,8.6,1.6,12.9,1.9v-0.4c0.1-2.4,0.3-5,0.7-8.3c0.1-1,0.2-2.2,0.5-3.6
					C26.8,19.7,23.6,18.9,20.4,17.8L20.4,17.8z M28.8,33.3c-4.4-0.3-8.7-0.9-13-1.9c-0.2,1.2-0.3,2.3-0.4,3.2
					c-0.4,3.2-0.5,6.5-0.4,9.7c4,0.6,8,1,12,1.2l0,0c0.3-2.8,0.8-5.6,1.6-8.3c0-0.1-0.1-0.1-0.1-0.2C28.6,36,28.7,34.8,28.8,33.3
					L28.8,33.3z M27.1,46.3c-4-0.2-8-0.6-12-1.1c0.1,1.3,0.2,2.6,0.4,3.9c0.3,3.2,1,6.4,1.9,9.5c2.8,0.4,6,0.7,9.8,1h0.2
					C26.7,55.1,26.6,50.7,27.1,46.3L27.1,46.3z M27.3,60.3c-0.1,0.1-0.2,0.1-0.3,0.1l0,0c-3.6-0.3-6.8-0.6-9.5-1
					c0.6,1.8,1.3,3.5,2.2,5.2c1.2,2.6,2.8,5,4.6,7.2c2.3,0.3,4.5,0.6,6,0.7C29,68.5,28,64.4,27.3,60.3L27.3,60.3z M30.7,73.3
					c-0.5,0-2.7-0.3-5.5-0.7c1.2,1.3,2.6,2.5,4.2,3.5c1,0.6,2.1,1.2,3.2,1.7C31.9,76.2,31.3,74.7,30.7,73.3L30.7,73.3z M33,78.7
					h-0.2l-0.3-0.1c-1.2-0.5-2.4-1.2-3.5-1.8c-1.9-1.2-3.5-2.6-5-4.3c-3.4-0.4-6.7-1.1-10-2c5.5,4.7,12.2,7.7,19.3,8.8
					C33.2,79.1,33.1,78.9,33,78.7L33,78.7z M19.1,64.8c-0.9-1.8-1.7-3.7-2.3-5.6C8.4,58,4.5,56.4,2.7,55.4c1.8,4.8,4.8,9.1,8.6,12.5
					l0.1,0.1l0.8,0.8l0,0c1.1,1,6.2,2,11,2.7C21.6,69.4,20.2,67.2,19.1,64.8z M16.5,58.4c-0.9-3-1.5-6.1-1.8-9.3
					c-0.2-1.4-0.3-2.8-0.4-4.2c-9-1.5-12.6-3.7-14.1-5.1c-0.1,0.9-0.1,1.8-0.1,2.8c0,0.2,0,0.3,0.1,0.5l0,0c0.1,3.8,0.7,7.5,2,11
					l0,0C3.3,55,6.7,57,16.5,58.4L16.5,58.4z M4.1,25.8c-2,4.1-3.3,8.5-3.7,13c0.8,1.1,3.8,3.7,13.9,5.4c-0.2-3.2,0-6.5,0.3-9.7
					c0.1-1,0.3-2.1,0.4-3.3l0,0C7.5,29.4,4.9,27,4.1,25.8z M27.5,9.3c-2.8,2-5.1,4.7-6.7,7.8c3,1.1,6.1,1.9,9.3,2.4
					c0.2-1,0.4-2.2,0.6-3.4c0.4-2.1,1-4.1,1.8-6.1c0.8-1.5,1.8-3,3-4.3C32.7,6.4,30,7.7,27.5,9.3L27.5,9.3z M14.9,13.2
					c0.4,0.6,1.7,2.1,5.3,3.6c1.6-3.2,4-6,6.9-8.1c2-1.3,4.1-2.4,6.4-3.2C26.7,6.5,20.3,9.1,14.9,13.2L14.9,13.2z"/>
			</g>
		</g>
	</g>
</g>
</svg>
