<?xml version="1.0" encoding="utf-8"?>
<!-- Generator: Adobe Illustrator 22.0.1, SVG Export Plug-In . SVG Version: 6.00 Build 0)  -->
<svg version="1.1" id="Layer_1" xmlns="http://www.w3.org/2000/svg" xmlns:xlink="http://www.w3.org/1999/xlink" x="0px" y="0px"
	 viewBox="0 0 361.5 78.6" style="enable-background:new 0 0 361.5 78.6;" xml:space="preserve">
<style type="text/css">
	.st0{fill:#FFFFFF;}
	.st1{fill:url(#SVGID_1_);}
	.st2{fill:url(#SVGID_2_);}
	.st3{fill:url(#SVGID_3_);}
	.st4{fill:url(#SVGID_4_);}
	.st5{fill:url(#SVGID_5_);}
	.st6{fill:url(#SVGID_6_);}
	.st7{fill:url(#SVGID_7_);}
	.st8{fill:url(#SVGID_8_);}
	.st9{fill:url(#SVGID_9_);}
</style>
<g id="globe_gold">
	<g id="light">
		<g>
			<path class="st0" d="M109.2,66.7v1h-8.7V51.8h1.2v14.9H109.2z"/>
			<path class="st0" d="M119.2,56.5v11.1h-0.6c-0.2,0-0.3-0.1-0.3-0.3l-0.1-1.7c-0.5,0.6-1.1,1.2-1.8,1.5c-0.7,0.4-1.4,0.6-2.3,0.6
				c-0.6,0-1.2-0.1-1.6-0.3c-0.5-0.2-0.8-0.5-1.2-0.8c-0.3-0.4-0.5-0.8-0.7-1.3s-0.2-1.1-0.2-1.7v-7.1h1.1v7.1c0,1,0.2,1.9,0.7,2.5
				c0.5,0.6,1.2,0.9,2.2,0.9c0.7,0,1.4-0.2,2-0.6c0.6-0.4,1.2-0.9,1.7-1.5v-8.4H119.2z"/>
			<path class="st0" d="M131.1,67.7h-1c-0.1,0-0.2,0-0.2-0.1c-0.1-0.1-0.1-0.1-0.1-0.2l-3.4-4.9c0,0.1-0.1,0.3-0.2,0.4l-3.2,4.5
				c-0.1,0.1-0.1,0.1-0.2,0.2c-0.1,0.1-0.1,0.1-0.2,0.1h-1l4.1-5.7l-3.9-5.4h1c0.1,0,0.2,0,0.2,0.1s0.1,0.1,0.1,0.2l3.3,4.7
				c0-0.1,0-0.1,0.1-0.2c0-0.1,0.1-0.1,0.1-0.2l3.1-4.3c0-0.1,0.1-0.1,0.1-0.2c0.1,0,0.1-0.1,0.2-0.1h1l-3.9,5.4L131.1,67.7z"/>
			<path class="st0" d="M142,56.5v11.1h-0.6c-0.2,0-0.3-0.1-0.3-0.3l-0.1-1.7c-0.5,0.6-1.1,1.2-1.8,1.5c-0.7,0.4-1.4,0.6-2.3,0.6
				c-0.6,0-1.2-0.1-1.6-0.3c-0.5-0.2-0.8-0.5-1.2-0.8c-0.3-0.4-0.5-0.8-0.7-1.3s-0.2-1.1-0.2-1.7v-7.1h1.1v7.1c0,1,0.2,1.9,0.7,2.5
				c0.5,0.6,1.2,0.9,2.2,0.9c0.7,0,1.4-0.2,2-0.6c0.6-0.4,1.2-0.9,1.7-1.5v-8.4H142z"/>
			<path class="st0" d="M146.7,59.2c0.2-0.5,0.4-0.9,0.6-1.2c0.2-0.4,0.5-0.7,0.8-0.9c0.3-0.2,0.6-0.4,1-0.6
				c0.4-0.1,0.7-0.2,1.2-0.2c0.2,0,0.5,0,0.7,0.1c0.2,0,0.4,0.1,0.6,0.2l-0.1,0.7c0,0.1-0.1,0.2-0.2,0.2c-0.1,0-0.2,0-0.4-0.1
				c-0.2-0.1-0.4-0.1-0.7-0.1c-0.4,0-0.8,0.1-1.1,0.2c-0.3,0.1-0.6,0.3-0.9,0.6c-0.3,0.3-0.5,0.6-0.7,1c-0.2,0.4-0.4,0.8-0.5,1.3
				v7.2h-1.1V56.5h0.6c0.1,0,0.2,0,0.3,0.1c0.1,0.1,0.1,0.1,0.1,0.3L146.7,59.2z"/>
			<path class="st0" d="M162.6,56.5l-6.4,14.7c0,0.1-0.1,0.2-0.2,0.3c-0.1,0.1-0.2,0.1-0.3,0.1H155l2-4.4l-4.7-10.7h0.9
				c0.1,0,0.2,0,0.3,0.1c0.1,0.1,0.1,0.1,0.1,0.2l3.8,8.7c0,0.1,0.1,0.2,0.1,0.3c0,0.1,0.1,0.2,0.1,0.4c0-0.1,0.1-0.2,0.1-0.4
				c0-0.1,0.1-0.2,0.1-0.3l3.7-8.7c0-0.1,0.1-0.1,0.2-0.2c0.1,0,0.1-0.1,0.2-0.1H162.6z"/>
			<path class="st0" d="M171.6,51.4v16.3h-1.1V51.4H171.6z"/>
			<path class="st0" d="M177,52.7c0,0.1,0,0.3-0.1,0.4c-0.1,0.1-0.1,0.2-0.2,0.3c-0.1,0.1-0.2,0.2-0.3,0.2c-0.1,0.1-0.2,0.1-0.4,0.1
				c-0.1,0-0.3,0-0.4-0.1c-0.1-0.1-0.2-0.1-0.3-0.2c-0.1-0.1-0.2-0.2-0.2-0.3c-0.1-0.1-0.1-0.2-0.1-0.4s0-0.3,0.1-0.4
				c0.1-0.1,0.1-0.2,0.2-0.3c0.1-0.1,0.2-0.2,0.3-0.2c0.1-0.1,0.2-0.1,0.4-0.1c0.1,0,0.3,0,0.4,0.1c0.1,0.1,0.2,0.1,0.3,0.2
				c0.1,0.1,0.2,0.2,0.2,0.3C177,52.4,177,52.6,177,52.7z M176.5,56.5v11.1h-1.1V56.5H176.5z"/>
			<path class="st0" d="M181,67.7v-10l-1.6-0.1c-0.2,0-0.3-0.1-0.3-0.3v-0.4h1.9v-1.4c0-0.6,0.1-1.2,0.2-1.7s0.4-0.9,0.7-1.2
				s0.7-0.6,1.1-0.7c0.4-0.2,0.9-0.2,1.4-0.2c0.2,0,0.5,0,0.7,0.1c0.2,0,0.4,0.1,0.6,0.2l0,0.5c0,0.1,0,0.1-0.1,0.1s-0.1,0-0.2,0
				c-0.1,0-0.2,0-0.3,0c-0.1,0-0.3,0-0.5,0c-0.4,0-0.7,0.1-1,0.2c-0.3,0.1-0.6,0.3-0.8,0.5c-0.2,0.2-0.4,0.6-0.5,0.9
				c-0.1,0.4-0.2,0.9-0.2,1.4v1.4h3.6v0.8h-3.6v10H181z"/>
			<path class="st0" d="M187.9,61.7v0.2c0,0.8,0.1,1.6,0.3,2.2s0.5,1.2,0.8,1.6s0.8,0.8,1.3,1c0.5,0.2,1.1,0.3,1.7,0.3
				c0.6,0,1-0.1,1.5-0.2c0.4-0.1,0.8-0.3,1-0.4c0.3-0.2,0.5-0.3,0.7-0.4s0.3-0.2,0.4-0.2c0.1,0,0.2,0,0.2,0.1l0.3,0.4
				c-0.2,0.2-0.4,0.4-0.7,0.6s-0.6,0.4-1,0.5c-0.4,0.1-0.8,0.2-1.2,0.3c-0.4,0.1-0.8,0.1-1.2,0.1c-0.8,0-1.5-0.1-2.1-0.4
				c-0.6-0.3-1.2-0.7-1.6-1.2c-0.4-0.5-0.8-1.1-1-1.9c-0.2-0.7-0.4-1.6-0.4-2.5c0-0.8,0.1-1.5,0.3-2.2c0.2-0.7,0.6-1.3,1-1.7
				c0.4-0.5,1-0.9,1.6-1.1c0.6-0.3,1.3-0.4,2.1-0.4c0.6,0,1.2,0.1,1.7,0.3s1,0.5,1.4,0.9c0.4,0.4,0.7,0.9,0.9,1.5
				c0.2,0.6,0.3,1.3,0.3,2.1c0,0.2,0,0.3-0.1,0.3c0,0.1-0.1,0.1-0.2,0.1H187.9z M195.3,61c0-0.6-0.1-1.1-0.3-1.6s-0.4-0.9-0.7-1.2
				c-0.3-0.3-0.7-0.6-1.1-0.8c-0.4-0.2-0.9-0.3-1.4-0.3c-0.6,0-1.1,0.1-1.5,0.3c-0.5,0.2-0.8,0.4-1.2,0.8c-0.3,0.3-0.6,0.7-0.8,1.2
				c-0.2,0.5-0.3,1-0.4,1.6H195.3z"/>
			<path class="st0" d="M205,60.6h5.2v0.9H205V60.6z"/>
			<path class="st0" d="M225,59c0.9,0,1.7,0.1,2.3,0.3s1.2,0.5,1.6,0.8c0.4,0.4,0.8,0.8,1,1.3c0.2,0.5,0.3,1.1,0.3,1.7
				c0,0.7-0.1,1.3-0.4,1.9c-0.2,0.6-0.6,1-1,1.4s-1,0.7-1.7,0.9s-1.4,0.3-2.3,0.3h-4.8V51.8h9.6v0.9h-8.5V59H225z M225,66.8
				c1.4,0,2.4-0.3,3.1-0.9c0.7-0.6,1-1.5,1-2.6c0-1.1-0.3-2-1-2.5c-0.7-0.6-1.7-0.8-3.1-0.8h-3.7v6.8H225z"/>
			<path class="st0" d="M241.7,56.5l-6.4,14.7c0,0.1-0.1,0.2-0.2,0.3c-0.1,0.1-0.2,0.1-0.3,0.1H234l2-4.4l-4.7-10.7h0.9
				c0.1,0,0.2,0,0.3,0.1c0.1,0.1,0.1,0.1,0.1,0.2l3.8,8.7c0,0.1,0.1,0.2,0.1,0.3c0,0.1,0.1,0.2,0.1,0.4c0-0.1,0.1-0.2,0.1-0.4
				c0-0.1,0.1-0.2,0.1-0.3l3.7-8.7c0-0.1,0.1-0.1,0.2-0.2s0.1-0.1,0.2-0.1H241.7z"/>
			<path class="st0" d="M254,66.9v4.4c0,0.2-0.1,0.4-0.3,0.4H253v-4h-10.7v3.7c0,0.1,0,0.2-0.1,0.2c0,0.1-0.1,0.1-0.2,0.1h-0.7v-4.8
				h0.4c0.3,0,0.5-0.1,0.8-0.2c0.3-0.1,0.5-0.3,0.8-0.6c0.3-0.3,0.5-0.7,0.7-1.2c0.2-0.5,0.4-1.1,0.6-1.9c0.2-0.8,0.3-1.7,0.5-2.8
				c0.1-1.1,0.2-2.3,0.3-3.8h6.4v10.3H254z M250.9,66.9v-9.5h-4.5c-0.1,1.5-0.2,2.8-0.4,3.9c-0.2,1.1-0.4,2-0.6,2.8
				c-0.2,0.8-0.5,1.4-0.7,1.8c-0.3,0.5-0.5,0.8-0.8,1.1H250.9z"/>
			<path class="st0" d="M260.2,61.2c0.8,0,1.4,0.1,1.9,0.3s0.9,0.4,1.2,0.7c0.3,0.3,0.5,0.6,0.7,1c0.1,0.4,0.2,0.8,0.2,1.2
				c0,0.5-0.1,0.9-0.3,1.3s-0.4,0.8-0.8,1c-0.3,0.3-0.7,0.5-1.2,0.7c-0.5,0.2-1.1,0.2-1.7,0.2h-4V56.5h1v4.7H260.2z M260.3,66.9
				c0.5,0,0.9-0.1,1.3-0.2c0.4-0.1,0.7-0.3,0.9-0.5c0.2-0.2,0.4-0.5,0.5-0.8s0.2-0.6,0.2-1c0-0.3-0.1-0.6-0.2-0.9
				c-0.1-0.3-0.3-0.5-0.5-0.8s-0.5-0.4-0.9-0.5s-0.9-0.2-1.4-0.2h-2.9v4.9H260.3z"/>
			<path class="st0" d="M276.7,56.5c0.7,0,1.2,0.1,1.7,0.2c0.5,0.1,0.9,0.3,1.1,0.6c0.3,0.2,0.5,0.5,0.6,0.8c0.1,0.3,0.2,0.6,0.2,1
				c0,0.2,0,0.5-0.1,0.8c-0.1,0.3-0.2,0.5-0.4,0.8c-0.2,0.3-0.4,0.5-0.7,0.7c-0.3,0.2-0.7,0.4-1.1,0.4c1,0.1,1.8,0.4,2.2,0.9
				c0.5,0.5,0.7,1.1,0.7,1.8c0,0.5-0.1,0.9-0.3,1.3c-0.2,0.4-0.5,0.7-0.8,1s-0.8,0.5-1.3,0.6s-1,0.2-1.6,0.2h-4V56.5H276.7z
				 M274,57.3v4.3h2.6c0.4,0,0.8-0.1,1.1-0.2c0.3-0.1,0.6-0.3,0.9-0.5c0.2-0.2,0.4-0.4,0.6-0.7c0.1-0.3,0.2-0.6,0.2-0.9
				c0-0.3,0-0.5-0.1-0.7c-0.1-0.2-0.3-0.4-0.5-0.6c-0.2-0.2-0.5-0.3-0.9-0.4c-0.4-0.1-0.8-0.2-1.3-0.2H274z M276.9,66.9
				c0.5,0,0.9-0.1,1.3-0.2c0.4-0.1,0.7-0.3,1-0.5c0.3-0.2,0.5-0.5,0.6-0.8s0.2-0.6,0.2-1c0-0.3-0.1-0.6-0.2-0.9s-0.3-0.5-0.5-0.7
				c-0.2-0.2-0.6-0.4-0.9-0.5s-0.8-0.2-1.4-0.2H274v4.7H276.9z"/>
			<path class="st0" d="M299,57.4h-4.7v10.3h-1.1V57.4h-4.7v-0.8H299V57.4z"/>
			<path class="st0" d="M302.2,58.5c0.5-0.7,1.1-1.2,1.7-1.6c0.7-0.4,1.4-0.6,2.2-0.6c1.4,0,2.4,0.5,3.2,1.4
				c0.8,0.9,1.1,2.4,1.1,4.3c0,0.8-0.1,1.6-0.3,2.3s-0.5,1.3-0.9,1.8c-0.4,0.5-0.9,0.9-1.5,1.2s-1.3,0.4-2.1,0.4
				c-0.8,0-1.4-0.1-2-0.4s-1-0.7-1.4-1.2v5.4h-1.1V56.5h0.6c0.2,0,0.3,0.1,0.3,0.3L302.2,58.5z M302.2,65.3c0.2,0.3,0.4,0.6,0.7,0.8
				s0.5,0.4,0.7,0.5c0.3,0.1,0.5,0.2,0.8,0.3s0.6,0.1,0.9,0.1c0.7,0,1.2-0.1,1.7-0.4c0.5-0.2,0.9-0.6,1.2-1c0.3-0.4,0.6-1,0.8-1.6
				c0.2-0.6,0.3-1.3,0.3-2c0-1.7-0.3-2.9-0.9-3.7s-1.5-1.2-2.6-1.2c-0.7,0-1.4,0.2-2,0.6s-1.1,0.9-1.6,1.6V65.3z"/>
			<path class="st0" d="M313.9,61.7v0.2c0,0.8,0.1,1.6,0.3,2.2s0.5,1.2,0.8,1.6s0.8,0.8,1.3,1c0.5,0.2,1.1,0.3,1.7,0.3
				c0.6,0,1-0.1,1.5-0.2c0.4-0.1,0.8-0.3,1-0.4c0.3-0.2,0.5-0.3,0.7-0.4s0.3-0.2,0.4-0.2c0.1,0,0.2,0,0.2,0.1l0.3,0.4
				c-0.2,0.2-0.4,0.4-0.7,0.6s-0.6,0.4-1,0.5c-0.4,0.1-0.8,0.2-1.2,0.3c-0.4,0.1-0.8,0.1-1.2,0.1c-0.8,0-1.5-0.1-2.1-0.4
				c-0.6-0.3-1.2-0.7-1.6-1.2c-0.4-0.5-0.8-1.1-1-1.9c-0.2-0.7-0.4-1.6-0.4-2.5c0-0.8,0.1-1.5,0.3-2.2c0.2-0.7,0.6-1.3,1-1.7
				c0.4-0.5,1-0.9,1.6-1.1c0.6-0.3,1.3-0.4,2.1-0.4c0.6,0,1.2,0.1,1.7,0.3s1,0.5,1.4,0.9c0.4,0.4,0.7,0.9,0.9,1.5
				c0.2,0.6,0.3,1.3,0.3,2.1c0,0.2,0,0.3-0.1,0.3c0,0.1-0.1,0.1-0.2,0.1H313.9z M321.3,61c0-0.6-0.1-1.1-0.3-1.6s-0.4-0.9-0.7-1.2
				c-0.3-0.3-0.7-0.6-1.1-0.8c-0.4-0.2-0.9-0.3-1.4-0.3c-0.6,0-1.1,0.1-1.5,0.3c-0.5,0.2-0.8,0.4-1.2,0.8c-0.3,0.3-0.6,0.7-0.8,1.2
				c-0.2,0.5-0.3,1-0.4,1.6H321.3z"/>
			<path class="st0" d="M334,56.5v11.1h-1.1v-5.6h-6.6v5.6h-1.1V56.5h1.1v4.7h6.6v-4.7H334z"/>
			<path class="st0" d="M348.7,66.9v4.4c0,0.2-0.1,0.4-0.3,0.4h-0.6v-4h-10.7v3.7c0,0.1,0,0.2-0.1,0.2c0,0.1-0.1,0.1-0.2,0.1h-0.7
				v-4.8h0.4c0.3,0,0.5-0.1,0.8-0.2c0.3-0.1,0.5-0.3,0.8-0.6c0.3-0.3,0.5-0.7,0.7-1.2c0.2-0.5,0.4-1.1,0.6-1.9
				c0.2-0.8,0.3-1.7,0.5-2.8c0.1-1.1,0.2-2.3,0.3-3.8h6.4v10.3H348.7z M345.6,66.9v-9.5h-4.5c-0.1,1.5-0.2,2.8-0.4,3.9
				c-0.2,1.1-0.4,2-0.6,2.8c-0.2,0.8-0.5,1.4-0.7,1.8c-0.3,0.5-0.5,0.8-0.8,1.1H345.6z"/>
			<path class="st0" d="M351.3,61.7v0.2c0,0.8,0.1,1.6,0.3,2.2s0.5,1.2,0.8,1.6s0.8,0.8,1.3,1c0.5,0.2,1.1,0.3,1.7,0.3
				c0.6,0,1-0.1,1.5-0.2c0.4-0.1,0.8-0.3,1-0.4c0.3-0.2,0.5-0.3,0.7-0.4s0.3-0.2,0.4-0.2c0.1,0,0.2,0,0.2,0.1l0.3,0.4
				c-0.2,0.2-0.4,0.4-0.7,0.6s-0.6,0.4-1,0.5c-0.4,0.1-0.8,0.2-1.2,0.3c-0.4,0.1-0.8,0.1-1.2,0.1c-0.8,0-1.5-0.1-2.1-0.4
				c-0.6-0.3-1.2-0.7-1.6-1.2c-0.4-0.5-0.8-1.1-1-1.9c-0.2-0.7-0.4-1.6-0.4-2.5c0-0.8,0.1-1.5,0.3-2.2c0.2-0.7,0.6-1.3,1-1.7
				c0.4-0.5,1-0.9,1.6-1.1c0.6-0.3,1.3-0.4,2.1-0.4c0.6,0,1.2,0.1,1.7,0.3s1,0.5,1.4,0.9c0.4,0.4,0.7,0.9,0.9,1.5
				c0.2,0.6,0.3,1.3,0.3,2.1c0,0.2,0,0.3-0.1,0.3c0,0.1-0.1,0.1-0.2,0.1H351.3z M358.7,61c0-0.6-0.1-1.1-0.3-1.6s-0.4-0.9-0.7-1.2
				c-0.3-0.3-0.7-0.6-1.1-0.8c-0.4-0.2-0.9-0.3-1.4-0.3c-0.6,0-1.1,0.1-1.5,0.3c-0.5,0.2-0.8,0.4-1.2,0.8c-0.3,0.3-0.6,0.7-0.8,1.2
				c-0.2,0.5-0.3,1-0.4,1.6H358.7z"/>
		</g>
		<g>
			<g>
				
					<linearGradient id="SVGID_1_" gradientUnits="userSpaceOnUse" x1="359.4855" y1="559.8013" x2="380.6463" y2="538.6503" gradientTransform="matrix(1 0 0 1 -116.57 -529.95)">
					<stop  offset="0" style="stop-color:#F6F2B8"/>
					<stop  offset="0.42" style="stop-color:#DFA857"/>
					<stop  offset="0.76" style="stop-color:#F6F2B8"/>
					<stop  offset="1" style="stop-color:#B78649"/>
				</linearGradient>
				<path class="st1" d="M265.2,10.5c0.9,0,1.5,0.7,1.5,1.6s-0.7,1.5-1.5,1.5h-10V38c0,0.9-0.7,1.7-1.7,1.7l0,0h-0.1
					c-0.9,0-1.6-0.7-1.6-1.5V13.6h-10c-0.9,0-1.6-0.7-1.6-1.5c0-0.9,0.7-1.6,1.6-1.6l0,0H265.2z"/>
				
					<linearGradient id="SVGID_2_" gradientUnits="userSpaceOnUse" x1="380.2058" y1="563.6694" x2="396.6797" y2="547.2057" gradientTransform="matrix(1 0 0 1 -116.57 -529.95)">
					<stop  offset="0" style="stop-color:#F6F2B8"/>
					<stop  offset="0.42" style="stop-color:#DFA857"/>
					<stop  offset="0.76" style="stop-color:#F6F2B8"/>
					<stop  offset="1" style="stop-color:#B78649"/>
				</linearGradient>
				<path class="st2" d="M271.4,20c1.4-3,4.1-3.8,6.7-3.8c0.9-0.1,1.6,0.5,1.7,1.4s-0.5,1.6-1.4,1.7l0,0c-0.1,0-0.2,0-0.4,0
					c-4.6,0-6.6,3.7-6.6,8.2v10.1c0,0.9-0.7,1.6-1.6,1.6l0,0h-0.1c-0.8,0.1-1.6-0.5-1.7-1.4l0,0V17.7c0-2,3.2-2.2,3.2,0L271.4,20z"
					/>
				
					<linearGradient id="SVGID_3_" gradientUnits="userSpaceOnUse" x1="401.7734" y1="566.1857" x2="418.6534" y2="549.3057" gradientTransform="matrix(1 0 0 1 -116.57 -529.95)">
					<stop  offset="0" style="stop-color:#F6F2B8"/>
					<stop  offset="0.42" style="stop-color:#DFA857"/>
					<stop  offset="0.76" style="stop-color:#F6F2B8"/>
					<stop  offset="1" style="stop-color:#B78649"/>
				</linearGradient>
				<path class="st3" d="M296.8,16.3c5.1,1.4,8.2,5.5,8.3,11.3l0,0c0.1,1-0.4,2.1-2.2,2.1h-17.7c0.7,4,4.2,6.9,8.2,6.8
					c2.2,0.1,4.3-0.6,6-1.9c1.6-1.4,3.9,0.4,2.2,2.2c-2.2,1.9-5.1,2.9-8,2.7c-3.5,0.1-6.8-1.4-9.1-4c-4.9-6.4-2.8-16.7,5.6-19.1
					C292.3,15.7,294.7,15.7,296.8,16.3L296.8,16.3z M285.1,26.9h17c-0.2-3.6-2.6-6.7-6.1-7.6l0,0c-1.6-0.4-3.3-0.4-4.9,0
					C287.6,20.2,285.2,23.3,285.1,26.9L285.1,26.9z"/>
				
					<linearGradient id="SVGID_4_" gradientUnits="userSpaceOnUse" x1="427.6029" y1="568.6037" x2="447.0959" y2="549.1207" gradientTransform="matrix(1 0 0 1 -116.57 -529.95)">
					<stop  offset="0" style="stop-color:#F6F2B8"/>
					<stop  offset="0.42" style="stop-color:#DFA857"/>
					<stop  offset="0.76" style="stop-color:#F6F2B8"/>
					<stop  offset="1" style="stop-color:#B78649"/>
				</linearGradient>
				<path class="st4" d="M329.7,25.9c0-3.9-3.1-7-7-7c-4.7,0-8.4,3.8-8.5,8.5v10.4c0.1,0.8-0.5,1.5-1.3,1.6c-0.1,0-0.2,0-0.3,0
					c-0.8,0.1-1.6-0.5-1.7-1.3c0-0.1,0-0.2,0-0.2V17.7c0-0.9,0.7-1.6,1.6-1.6s1.6,0.7,1.6,1.6v2.8c1.6-3.3,5.1-4.7,8.6-4.7
					c5.2,0,10.2,3.6,10.2,10.1v11.9c0.1,0.8-0.5,1.5-1.3,1.6c-0.1,0-0.2,0-0.3,0c-0.8,0.1-1.6-0.5-1.6-1.3l0,0c0-0.1,0-0.1,0-0.2
					L329.7,25.9L329.7,25.9z"/>
				
					<linearGradient id="SVGID_5_" gradientUnits="userSpaceOnUse" x1="459.5413" y1="567.1923" x2="482.0613" y2="544.6723" gradientTransform="matrix(1 0 0 1 -116.57 -529.95)">
					<stop  offset="0" style="stop-color:#F6F2B8"/>
					<stop  offset="0.42" style="stop-color:#DFA857"/>
					<stop  offset="0.76" style="stop-color:#F6F2B8"/>
					<stop  offset="1" style="stop-color:#B78649"/>
				</linearGradient>
				<path class="st5" d="M350.2,16c3,0,5.9,1.3,7.3,3.6v-9c0-2.1,3.3-2.1,3.3,0v27.2c0.1,0.8-0.6,1.5-1.4,1.6l0,0
					c-0.1,0-0.2,0-0.3,0c-0.8,0.1-1.4-0.5-1.5-1.2l0,0c0-0.1,0-0.2,0-0.3v-2.2c-1.6,2.6-4.4,4.1-7.4,4c-1.5,0-2.9-0.3-4.3-0.8l0,0
					c-4.9-2-7.4-6.5-7.3-11.7c-0.1-6.1,4.9-11.1,11-11.2l0,0C349.8,16,350,16,350.2,16z M357.5,29.6V26c0-4-3.1-6.8-7.1-6.9
					c-3.3-0.1-6.3,1.8-7.7,4.8c-0.4,1.1-0.6,2.2-0.7,3.3c-0.2,2.9,1.1,5.8,3.3,7.7c1.3,1,2.9,1.6,4.6,1.8
					C354,36.6,357.5,34,357.5,29.6z"/>
			</g>
			<g>
				<path class="st0" d="M113.1,39.6c-8-0.2-14.3-6.7-14.1-14.7l0,0c0-0.1,0-0.2,0-0.3c0.2-6.9,5-13.3,11.9-14.4
					c4.4-0.7,9.8,0.6,12.9,4c0.7,0.9-0.4,1.8-1.1,1c-2.8-3.1-7.6-4.2-11.6-3.5c-6.3,1-10.5,6.8-10.7,13c-0.2,7.2,5.5,13.3,12.7,13.5
					l0,0l0,0c4,0.1,7.9-1.8,10.3-5v-7.4h-9.6c-0.4,0-0.6-0.4-0.6-0.7l0,0c0-0.3,0.3-0.6,0.6-0.6h10.1c0.6,0,0.8,0.4,0.8,0.9v8
					c0,0.4-0.1,0.7-0.3,1C121.8,37.6,117.6,39.7,113.1,39.6z"/>
				<path class="st0" d="M132.8,38.8c0,0.4-0.3,0.8-0.8,0.8c-0.4,0-0.8-0.3-0.8-0.7l0,0V10.5c0-0.4,0.4-0.8,0.8-0.8l0,0l0,0
					c0.4,0,0.7,0.3,0.8,0.8V38.8z"/>
				<path class="st0" d="M141.3,35.5c-2-2.4-3-5.5-2.7-8.6c0.4-4.8,3.4-9.2,8.2-10.6c2.2-0.6,4.6-0.6,6.8,0c4.7,1.4,8,5.7,8.3,10.6
					c0.3,3.1-0.7,6.2-2.7,8.6c-4.4,5-12,5.4-16.9,1C141.9,36.1,141.6,35.8,141.3,35.5z M147.4,17.8c-7,1.9-9.4,11.2-4.8,16.7
					c3.8,4.3,10.4,4.7,14.6,0.8c0.3-0.3,0.6-0.5,0.8-0.8c4.6-5.5,2.1-14.8-4.9-16.6C151.3,17.3,149.3,17.3,147.4,17.8z"/>
				<path class="st0" d="M189.6,27.2c0.1,5.3-2.3,9.7-7.1,11.7c-3.2,1.3-6.9,1.1-9.9-0.7c-1.5-0.9-2.7-2.3-3.3-4v4.4
					c0,0.4-0.2,0.8-0.6,0.8h-0.1c-0.4,0-0.8-0.3-0.8-0.7l0,0V10.5c0-0.4,0.3-0.8,0.7-0.8h0.1c0.4,0,0.7,0.3,0.8,0.7v0.1v10.8
					c1.5-3.5,5-5.3,8.7-5.4c1.6-0.1,3.3,0.2,4.8,0.9C187,18.5,189.7,22.6,189.6,27.2z M178.6,38.2c2-0.1,3.9-0.8,5.5-2
					c2.7-2.2,4.2-5.5,4-9c0-1.3-0.3-2.7-0.8-3.9c-1.6-3.6-5.3-5.9-9.2-5.7c-4.7,0-8.5,3.7-8.7,8.3v3.9c0,3.2,1.8,6,4.7,7.4
					C175.5,37.9,177,38.2,178.6,38.2L178.6,38.2z"/>
				<path class="st0" d="M205.8,15.9c1.9,0,3.7,0.5,5.4,1.4c1.5,1,2.7,2.5,3.3,4.2v-4.6c0-0.4,0.2-0.7,0.6-0.8h0.1
					c0.4,0,0.8,0.3,0.8,0.7v21.6c0,0.4-0.3,0.8-0.7,0.8l0,0h-0.1c-0.4,0-0.7-0.3-0.8-0.6l0,0v-0.1v-4.6c-0.6,1.7-1.8,3.2-3.3,4.2
					c-3,1.8-6.6,2-9.9,0.7c-4.9-2-7.3-6.4-7.2-11.7c0.1-4.5,2.6-8.7,6.8-10.4C202.5,16.2,204.1,15.9,205.8,15.9z M214.4,29.7v-3.9
					c0-3.2-1.8-6-4.7-7.4c-1.3-0.6-2.6-0.9-4-0.9c-3.9-0.2-7.6,2.1-9.2,5.7c-0.5,1.2-0.8,2.6-0.8,3.9c-0.3,3.5,1.2,6.9,4,9
					c2.9,2.3,6.8,2.7,10.1,1C212.6,35.7,214.4,32.9,214.4,29.7L214.4,29.7z"/>
				<path class="st0" d="M224.9,38.8c0,0.4-0.3,0.8-0.8,0.8c-0.4,0-0.8-0.3-0.8-0.7l0,0V10.5c0-0.4,0.4-0.8,0.8-0.8l0,0l0,0
					c0.4,0,0.7,0.3,0.8,0.8V38.8z"/>
			</g>
		</g>
		<g>
			
				<linearGradient id="SVGID_6_" gradientUnits="userSpaceOnUse" x1="158.098" y1="601.9455" x2="193.8086" y2="581.3335" gradientTransform="matrix(1 0 0 1 -116.57 -529.95)">
				<stop  offset="0" style="stop-color:#F6F2B8"/>
				<stop  offset="0.42" style="stop-color:#DFA857"/>
				<stop  offset="0.76" style="stop-color:#F6F2B8"/>
				<stop  offset="1" style="stop-color:#B78649"/>
			</linearGradient>
			<path class="st6" d="M75.5,48.5c0,0-3,21.8-31.1,28.6C44.5,77.1,45.2,49.3,75.5,48.5z"/>
			
				<linearGradient id="SVGID_7_" gradientUnits="userSpaceOnUse" x1="147.459" y1="591.4776" x2="200.8906" y2="560.6266" gradientTransform="matrix(1 0 0 1 -116.57 -529.95)">
				<stop  offset="0" style="stop-color:#F6F2B8"/>
				<stop  offset="0.42" style="stop-color:#DFA857"/>
				<stop  offset="0.76" style="stop-color:#F6F2B8"/>
				<stop  offset="1" style="stop-color:#B78649"/>
			</linearGradient>
			<path class="st7" d="M75.5,15.4c0,0-24,5.4-33.8,33.1c-2.6,9.7-4,19.5-1.3,29.5c0,0-1.6-10.8,7.4-22s29-12.8,29-12.8
				S80.8,32.8,75.5,15.4z"/>
			
				<linearGradient id="SVGID_8_" gradientUnits="userSpaceOnUse" x1="141.6016" y1="601.5429" x2="181.8002" y2="531.9308" gradientTransform="matrix(1 0 0 1 -116.57 -529.95)">
				<stop  offset="0" style="stop-color:#F6F2B8"/>
				<stop  offset="0.42" style="stop-color:#DFA857"/>
				<stop  offset="0.76" style="stop-color:#F6F2B8"/>
				<stop  offset="1" style="stop-color:#B78649"/>
			</linearGradient>
			<path class="st8" d="M36.3,78.1c0,0-6.7-29.8,12.8-50c7.3-7.3,17.8-13.6,17.8-13.6L61.8,0c0,0-19.9,9.9-28.1,32.2
				S33.6,75.2,36.3,78.1z"/>
			
				<linearGradient id="SVGID_9_" gradientUnits="userSpaceOnUse" x1="125.7986" y1="597.7592" x2="162.1586" y2="534.7791" gradientTransform="matrix(1 0 0 1 -116.57 -529.95)">
				<stop  offset="0" style="stop-color:#F6F2B8"/>
				<stop  offset="0.42" style="stop-color:#DFA857"/>
				<stop  offset="0.76" style="stop-color:#F6F2B8"/>
				<stop  offset="1" style="stop-color:#B78649"/>
			</linearGradient>
			<path class="st9" d="M38.2,4.9c1.8,1.6,3.1,3.7,3.6,6c1.1-1.3,2-2.4,2.8-3.3C42.6,6.6,40.4,5.7,38.2,4.9z M39.4,4.5
				c2.5,0.9,5.5,2.4,5.7,2.5h0.1c1-1,1.5-1.5,1.5-1.5C44.3,4.8,41.9,4.5,39.4,4.5L39.4,4.5z M41.2,11.5c-0.5-2.8-2.2-5.2-4.6-6.8
				c-1.4,1.5-2.6,3.1-3.5,4.9c-0.8,1.9-1.4,3.9-1.8,5.9c-0.3,1.2-0.5,2.3-0.6,3.4c1.5,0.2,3.2,0.4,5,0.6l0,0
				C37.4,16.7,39.2,14.1,41.2,11.5L41.2,11.5L41.2,11.5z M30.6,19.6c-0.2,1.4-0.3,2.6-0.5,3.6c-0.4,3.3-0.5,5.9-0.7,8.2v0.5h0.2
				c0.1,0,0.2,0.1,0.3,0.1c1.4-4.1,3.3-8.1,5.5-11.9C33.7,20.1,32.1,19.9,30.6,19.6z M29.6,32.7h-0.2c0,0.4,0,0.8-0.1,1.2
				C29.4,33.5,29.5,33.1,29.6,32.7C29.7,32.7,29.7,32.7,29.6,32.7L29.6,32.7z M14.1,12.9c-4,3.1-7.4,7-9.8,11.4
				C4.6,25,6.7,27.7,15,29.8c0.6-3.8,1.8-7.5,3.5-11c0.3-0.6,0.6-1.3,1-2C16,15.3,14.6,13.7,14.1,12.9L14.1,12.9z M20.2,17.1
				c-0.4,0.7-0.7,1.4-1,2c-1.7,3.5-2.8,7.2-3.5,11c4.3,0.9,8.6,1.6,12.9,1.8v-0.4c0.1-2.4,0.3-5,0.7-8.3c0.1-1,0.2-2.2,0.5-3.6
				C26.6,19.1,23.4,18.3,20.2,17.1L20.2,17.1z M28.6,32.6c-4.4-0.3-8.7-0.9-13-1.9c-0.2,1.2-0.3,2.3-0.4,3.2
				c-0.4,3.2-0.5,6.5-0.3,9.7c4,0.6,8,1,12.1,1.2l0,0c0.3-2.8,0.8-5.6,1.6-8.3c0-0.1-0.1-0.1-0.1-0.2C28.5,35.4,28.5,34.1,28.6,32.6
				L28.6,32.6z M26.8,45.6c-4-0.2-8-0.6-12-1.1c0.1,1.3,0.2,2.6,0.4,3.9c0.3,3.2,1,6.4,1.9,9.5c2.8,0.4,6,0.7,9.8,1H27
				C26.5,54.5,26.4,50,26.8,45.6L26.8,45.6z M27.1,59.6c-0.1,0.1-0.2,0.1-0.3,0.1l0,0c-3.6-0.3-6.8-0.6-9.5-1
				c0.6,1.8,1.4,3.5,2.2,5.2c1.2,2.6,2.8,5,4.6,7.2c2.3,0.3,4.5,0.6,6,0.7C28.7,67.8,27.7,63.7,27.1,59.6L27.1,59.6z M30.5,72.6
				c-0.5-0.1-2.7-0.3-5.5-0.7c1.2,1.3,2.6,2.5,4.2,3.5c1,0.6,2.1,1.2,3.2,1.7C31.7,75.5,31.1,74,30.5,72.6L30.5,72.6z M32.8,78h-0.2
				l-0.3-0.1c-1.2-0.5-2.4-1.1-3.6-1.8c-1.8-1.2-3.5-2.6-5-4.3c-3.4-0.4-6.7-1.1-10-1.9c5.5,4.7,12.2,7.7,19.3,8.8
				C33,78.4,32.9,78.2,32.8,78L32.8,78z M18.9,64.2c-0.9-1.8-1.7-3.7-2.3-5.6c-8.3-1.2-12.3-2.8-14.1-3.8c1.8,4.8,4.8,9.1,8.6,12.5
				l0.1,0.1l0.8,0.8l0,0c1.1,1,6.2,2,11,2.7C21.5,68.8,20.1,66.5,18.9,64.2z M16.3,57.7c-0.9-3-1.5-6.1-1.8-9.3
				c-0.2-1.4-0.3-2.8-0.4-4.2c-9-1.5-12.6-3.7-14.1-5.1c0,1,0,2,0,2.9c0,0.2,0,0.3,0.1,0.5l0,0c0.1,3.8,0.7,7.5,2,11l0,0
				C3.2,54.4,6.6,56.3,16.3,57.7z M3.9,25.1c-2,4.1-3.3,8.5-3.7,13C1,39.3,4,41.9,14.1,43.6c-0.2-3.2,0-6.5,0.3-9.7
				c0.1-1,0.3-2.1,0.4-3.3l0,0C7.3,28.7,4.7,26.3,3.9,25.1z M27.3,8.6c-2.8,2-5.1,4.7-6.7,7.8c3,1.1,6.1,1.9,9.3,2.4
				c0.2-1,0.4-2.2,0.6-3.4c0.4-2.1,1-4.1,1.8-6.1c0.8-1.5,1.8-3,3-4.3C32.5,5.7,29.8,7,27.3,8.6z M14.7,12.5
				c0.4,0.6,1.7,2.1,5.3,3.6c1.6-3.2,4-6,6.9-8.1c2-1.3,4.1-2.4,6.4-3.2C26.5,5.8,20.1,8.5,14.7,12.5z"/>
		</g>
	</g>
</g>
</svg>
